<svg xmlns="http://www.w3.org/2000/svg" xmlns:xlink="http://www.w3.org/1999/xlink" width="257.088" height="233.004" viewBox="0 0 257.088 233.004">
  <defs>
    <clipPath id="clip-path">
      <rect id="Rectangle_48" data-name="Rectangle 48" width="208.173" height="201.605" fill="none"/>
    </clipPath>
    <clipPath id="clip-path-2">
      <rect id="Rectangle_55" data-name="Rectangle 55" width="75.152" height="74.4" fill="none"/>
    </clipPath>
  </defs>
  <g id="Group_223" data-name="Group 223" transform="translate(-43.052 -277.252)">
    <g id="Group_136" data-name="Group 136" transform="translate(77.661 308.651)">
      <g id="Group_135" data-name="Group 135" transform="translate(0 0)" clip-path="url(#clip-path)">
        <path id="Path_305" data-name="Path 305" d="M897.777,256.309a67.59,67.59,0,0,1-18.053-2.1,94.558,94.558,0,0,1-9.05-3.19c-2.083-.815-4.237-1.658-6.4-2.376-7.706-2.563-15.8-3.676-23.42-4.6-9.944-1.2-20.532-2.241-31.042-.693-3.832.564-7.7,1.487-11.434,2.38-7.081,1.691-14.4,3.438-21.774,2.8-3.955-.342-6.823-1.39-8.769-3.2-2.936-2.738-3.465-6.878-3.756-10.884-.509-7.034-.943-15.209.366-23.215a115.169,115.169,0,0,1,3.042-12.563,110.264,110.264,0,0,0,3.115-13.043c.917-5.966,1.34-17.085-6.127-24.52a41.232,41.232,0,0,0-5.918-4.592,39.9,39.9,0,0,1-6.19-4.856c-2.7-2.777-3.959-5.648-3.728-8.533.491-6.128,7.566-11.495,13.251-15.807,1.581-1.2,3.075-2.333,4.334-3.4l.156.162-.156-.162c14.285-12.144,29.058-24.7,47.241-31.836,15.773-6.188,38.758-8.65,55.968,3a85.215,85.215,0,0,1,8.732,7.108c1.982,1.766,4.032,3.592,6.17,5.246A61.146,61.146,0,0,0,908.672,118.7c2.145.465,4.374.83,6.529,1.183,5.393.883,10.969,1.8,15.788,4.366a26.582,26.582,0,0,1,13.469,20.687c.79,7.728-1.569,16.216-6.641,23.9-1.565,2.371-3.374,4.669-5.123,6.892-3.514,4.466-7.148,9.084-8.889,14.43-1.814,5.569-1.477,11.472-1.152,17.18l1.718,30.078c.339,5.937.054,14.167-6.31,17.1a18.664,18.664,0,0,1-6.643,1.244c-4.358.27-8.97.557-13.641.557M821.15,242.136a165.088,165.088,0,0,1,19.767,1.475c7.65.923,15.767,2.04,23.517,4.617,2.17.722,4.33,1.567,6.419,2.384a94.055,94.055,0,0,0,9,3.174c10.26,2.85,21.073,2.178,31.531,1.529a18.3,18.3,0,0,0,6.469-1.2c6.116-2.816,6.382-10.869,6.05-16.681l-1.717-30.078c-.328-5.746-.667-11.688,1.171-17.331,1.765-5.417,5.423-10.066,8.961-14.561,1.743-2.216,3.546-4.507,5.1-6.863,5.019-7.6,7.353-15.994,6.573-23.627a26.136,26.136,0,0,0-13.236-20.348c-4.749-2.534-10.284-3.44-15.638-4.316-2.161-.353-4.4-.719-6.553-1.187a61.63,61.63,0,0,1-24.522-11.353c-2.151-1.664-4.207-3.495-6.195-5.266a84.933,84.933,0,0,0-8.684-7.071c-17.053-11.545-39.86-9.094-55.517-2.951-18.11,7.105-32.852,19.637-47.108,31.757-1.268,1.078-2.767,2.215-4.354,3.419-5.615,4.259-12.6,9.56-13.079,15.5-.224,2.8.955,5.483,3.607,8.205a39.589,39.589,0,0,0,6.12,4.8,41.593,41.593,0,0,1,5.983,4.645c7.6,7.569,7.178,18.839,6.249,24.883a110.466,110.466,0,0,1-3.125,13.093A114.653,114.653,0,0,0,764.91,211.3c-1.3,7.962-.87,16.108-.362,23.119.284,3.923.8,7.973,3.619,10.6,1.866,1.74,4.642,2.748,8.484,3.08,7.29.629,14.573-1.11,21.616-2.792,3.748-.895,7.623-1.82,11.477-2.388a78.227,78.227,0,0,1,11.406-.783" transform="translate(-744.907 -72.502)" fill="#e5eefe"/>
        <path id="Path_306" data-name="Path 306" d="M1089.05,223.492q-.689-.107-1.378-.2l.07-.432q.692.1,1.384.206Z" transform="translate(-926.235 -148.996)" fill="#4c59e0"/>
        <path id="Path_307" data-name="Path 307" d="M1080.051,289.6l-.363-.273c.555-.651,1.159-1.31,1.8-1.958l.342.3c-.629.64-1.226,1.291-1.774,1.934m3.681-3.759-.322-.315c.632-.572,1.315-1.157,2.028-1.741l.305.33c-.708.579-1.384,1.16-2.011,1.726m4.1-3.371-.292-.341c.681-.515,1.388-1.034,2.161-1.587l.281.348c-.769.551-1.473,1.067-2.151,1.58m4.341-3.113-.274-.353q1.1-.759,2.217-1.509l.272.356q-1.111.749-2.214,1.506m4.436-3.005-.272-.356q1.112-.751,2.213-1.507l.275.353q-1.1.759-2.216,1.51m4.412-3.053-.285-.345.142-.1c.676-.485,1.346-.987,1.995-1.491l.3.337c-.653.507-1.328,1.012-2.008,1.5Zm4.228-3.289-.312-.325c.686-.583,1.351-1.176,1.978-1.762l.328.31c-.631.591-1.3,1.189-1.994,1.777m3.888-3.649-.346-.292c.62-.65,1.209-1.307,1.752-1.955l.365.271c-.549.654-1.145,1.319-1.771,1.976m3.4-4.062-.385-.245c.517-.721,1-1.451,1.423-2.171l.407.214c-.434.73-.92,1.471-1.444,2.2m2.669-4.521-.426-.175a22.015,22.015,0,0,0,.943-2.384l.444.129a22.337,22.337,0,0,1-.961,2.43m1.61-4.952-.458-.076a17.849,17.849,0,0,0,.291-2.525l.465.018a18.352,18.352,0,0,1-.3,2.583m-.242-5.138a17.459,17.459,0,0,0-.452-2.5l.453-.1a17.966,17.966,0,0,1,.462,2.562Zm-1.255-4.928a20.642,20.642,0,0,0-1.118-2.317l.412-.2a21.115,21.115,0,0,1,1.141,2.364Zm-2.511-4.5a25.414,25.414,0,0,0-1.631-2.035l.357-.28a25.842,25.842,0,0,1,1.659,2.07Zm-3.468-3.91c-.638-.592-1.317-1.166-2.017-1.705l.294-.338c.712.548,1.4,1.13,2.05,1.732Zm-4.193-3.228-.156-.1c-.691-.433-1.416-.852-2.153-1.244l.229-.381c.747.4,1.482.822,2.183,1.261l.158.1Zm-4.721-2.518c-.8-.357-1.64-.7-2.493-1.019l.172-.407c.863.323,1.711.67,2.521,1.031Zm-5.051-1.895c-.838-.262-1.714-.514-2.6-.747l.124-.421c.9.235,1.782.489,2.627.753Zm-5.245-1.38c-.859-.188-1.756-.368-2.666-.535l.089-.429c.916.168,1.818.349,2.683.538Z" transform="translate(-921.965 -149.846)" fill="#4c59e0"/>
        <path id="Path_308" data-name="Path 308" d="M1074.9,379.013l-.4-.23q.37-.565.764-1.11l.385.245q-.388.537-.753,1.094" transform="translate(-919.192 -236.096)" fill="#4c59e0"/>
        <path id="Path_309" data-name="Path 309" d="M773.4,389.13l-.013-.437c.917-.023,1.845-.091,2.758-.2l.06.434c-.929.113-1.872.182-2.806.206m-2.813-.064c-.935-.067-1.874-.179-2.791-.335l.082-.43c.9.153,1.825.264,2.744.329Zm8.387-.62-.108-.426a27.22,27.22,0,0,0,2.651-.738l.156.412a27.562,27.562,0,0,1-2.7.752m-13.917-.32a27.39,27.39,0,0,1-2.656-.877l.178-.4a26.745,26.745,0,0,0,2.608.861Zm19.211-1.46-.2-.393c.4-.181.79-.376,1.173-.578.409-.215.826-.448,1.239-.692l.248.37c-.42.248-.843.485-1.259.7-.391.206-.793.4-1.2.59m-24.4-.565a24.208,24.208,0,0,1-2.38-1.418l.272-.354a23.846,23.846,0,0,0,2.333,1.39Zm29.168-2.233-.28-.349c.7-.5,1.41-1.037,2.158-1.641l.3.332c-.755.611-1.469,1.153-2.181,1.659m-33.73-.862a22.018,22.018,0,0,1-1.94-1.922l.356-.281a21.517,21.517,0,0,0,1.9,1.883Zm37.992-2.56-.318-.32c.59-.52,1.228-1.1,2.008-1.816l.326.313c-.782.721-1.423,1.3-2.016,1.823m-41.608-1.492a22.939,22.939,0,0,1-1.4-2.3l.416-.2a22.366,22.366,0,0,0,1.373,2.254ZM797.3,376.78l-.327-.312c.664-.615,1.33-1.228,2.005-1.831l.321.317c-.672.6-1.337,1.213-2,1.827m-48.125-2.555a23.1,23.1,0,0,1-.823-2.532l.452-.1a22.734,22.734,0,0,0,.808,2.487Zm52.171-1.043-.308-.328q.639-.531,1.3-1.043.422-.328.86-.646l.284.346q-.431.314-.848.637-.65.506-1.284,1.034m4.4-3.172-.251-.368c.8-.483,1.621-.928,2.436-1.322l.213.389c-.8.388-1.608.826-2.4,1.3m-57.913-.918a22.243,22.243,0,0,1-.212-2.64l.465-.009a21.818,21.818,0,0,0,.208,2.592Zm62.832-1.452-.167-.409a23.539,23.539,0,0,1,2.687-.8l.112.425a22.862,22.862,0,0,0-2.632.785m12.587-.024a12.984,12.984,0,0,0-1.813-.688l.14-.417a13.461,13.461,0,0,1,1.881.713ZM816,366.421l-.041-.436a16.518,16.518,0,0,1,2.83,0l-.044.436a16.154,16.154,0,0,0-2.745,0m-67.817-2.573-.463-.043a20.606,20.606,0,0,1,.444-2.616l.454.1a20.268,20.268,0,0,0-.435,2.564m1.206-5.055-.438-.149a19.249,19.249,0,0,1,1.111-2.385l.023-.042.413.2-.023.043a18.919,18.919,0,0,0-1.087,2.333m2.526-4.605-.386-.244c.5-.7,1.045-1.395,1.668-2.126l.363.273c-.615.721-1.153,1.407-1.645,2.1m3.449-4.081-.346-.293c.553-.577,1.16-1.188,1.91-1.924l.335.3c-.747.731-1.351,1.339-1.9,1.913m3.842-3.8-.334-.3c.648-.627,1.294-1.256,1.927-1.893l.34.3c-.636.639-1.283,1.27-1.933,1.9m3.806-3.858-.354-.285c.607-.667,1.183-1.356,1.713-2.048l.377.255c-.537.7-1.121,1.4-1.737,2.078m3.272-4.294-.4-.22a22.8,22.8,0,0,0,1.263-2.311l.425.177a23.114,23.114,0,0,1-1.287,2.355m2.256-4.846-.447-.12a14.3,14.3,0,0,0,.537-2.533l.462.047a14.7,14.7,0,0,1-.552,2.607m.108-5.227a10.577,10.577,0,0,0-.581-2.509l.441-.142a11.023,11.023,0,0,1,.6,2.608Z" transform="translate(-744.371 -206.705)" fill="#4c59e0"/>
        <path id="Path_310" data-name="Path 310" d="M900.624,169.094l-.463-.042q.059-.567.14-1.131l.461.059q-.08.556-.138,1.115m.633-3.677-.453-.1c.207-.853.456-1.711.742-2.548l.443.133c-.281.826-.528,1.671-.732,2.512m1.691-4.956-.429-.168c.359-.808.759-1.613,1.191-2.393l.412.2c-.425.769-.82,1.563-1.174,2.36m2.554-4.619-.393-.234c.5-.742,1.036-1.473,1.6-2.173l.371.264c-.554.689-1.084,1.41-1.576,2.142m3.34-4.152-.346-.292c.625-.654,1.286-1.289,1.967-1.887l.318.32c-.671.59-1.324,1.216-1.939,1.86m4.044-3.553-.286-.345q.422-.309.853-.6c.451-.308.92-.613,1.433-.931l.256.365c-.508.315-.97.615-1.416.92q-.425.291-.84.6m4.615-2.9-.237-.376c.8-.447,1.609-.883,2.419-1.319l.231.38c-.807.434-1.614.87-2.412,1.315m4.832-2.631-.237-.376c.917-.51,1.668-.947,2.365-1.376l.255.366c-.7.432-1.46.873-2.382,1.386m-104.81-.486-.463-.044c.088-.824.148-1.7.18-2.6l.465.014c-.032.914-.093,1.8-.181,2.633M927.006,139.7l-.286-.346a22.97,22.97,0,0,0,2.085-1.7l.326.312a23.37,23.37,0,0,1-2.125,1.736m-109.749-2.834c-.014-.806-.046-1.661-.1-2.616l.465-.021c.05.959.081,1.819.1,2.629Zm113.735-.9-.373-.262c.262-.33.512-.673.742-1.017a12.233,12.233,0,0,0,.693-1.179l.419.19a12.632,12.632,0,0,1-.717,1.221c-.237.355-.494.707-.763,1.047M817,131.63l-.187-2.618.464-.029.188,2.619Zm116.447-.434-.451-.109a13.336,13.336,0,0,0,.436-2.548l.464.03a13.784,13.784,0,0,1-.449,2.627m-116.8-4.808c-.052-.965-.086-1.825-.1-2.63l.465-.008c.016.8.05,1.656.1,2.616Zm116.742-.434a15.051,15.051,0,0,0-.5-2.543l.449-.114a15.38,15.38,0,0,1,.514,2.613Zm-116.368-4.818-.465-.014c.03-.932.089-1.794.178-2.634l.463.044c-.089.83-.147,1.682-.176,2.6m114.936-.158a14.961,14.961,0,0,0-1.346-2.253l.384-.246a15.421,15.421,0,0,1,1.385,2.317Zm-3.089-4.245a13.706,13.706,0,0,0-2.112-1.642l.259-.363a14.158,14.158,0,0,1,2.183,1.7Zm-111.275-.777-.457-.083a23.023,23.023,0,0,1,.68-2.568l.444.129a22.591,22.591,0,0,0-.667,2.522m106.744-2.079a19.478,19.478,0,0,0-2.612-.821l.115-.424a19.909,19.909,0,0,1,2.677.842Zm-39.04-.545c-.884,0-1.7-.022-2.5-.066l.028-.437c.79.044,1.6.066,2.474.066h.3l0,.437Zm3.1-.079-.023-.437c.809-.038,1.693-.09,2.779-.165l.034.436c-1.09.075-1.977.128-2.791.166M880,113a26.84,26.84,0,0,1-2.758-.531l.12-.423a26.2,26.2,0,0,0,2.707.521Zm13.976-.109-.035-.436.36-.026q1.214-.086,2.427-.161l.03.437q-1.211.074-2.422.16Zm25.038-.327c-.862-.112-1.765-.194-2.76-.25l.027-.437c1.008.056,1.923.139,2.8.253Zm-19.474-.014-.025-.437q1.394-.071,2.79-.126l.02.437q-1.393.055-2.786.126m5.572-.221-.014-.437q1.4-.041,2.793-.066l.009.437q-1.394.025-2.788.066m8.363-.1q-.611-.007-1.22-.006h-.462q-.552,0-1.1.005l0-.437q.553,0,1.106-.005h.464q.611,0,1.226.006Zm-38.907-.6a26.482,26.482,0,0,1-2.54-1.14l.221-.384a26.085,26.085,0,0,0,2.5,1.119Zm-55.331-.617-.424-.181q.187-.388.393-.774c.284-.529.6-1.055.941-1.562l.393.233c-.333.5-.641,1.01-.919,1.527q-.2.377-.385.757m50.375-1.868c-.677-.405-1.4-.856-2.33-1.459l.263-.36c.929.6,1.644,1.048,2.317,1.45Zm-47.444-2.508-.356-.281a21.41,21.41,0,0,1,1.947-1.916l.315.321a21.053,21.053,0,0,0-1.906,1.876m42.818-.442c-.829-.535-1.473-.938-2.088-1.309l-.23-.138.249-.369.232.139c.62.374,1.268.78,2.1,1.317Zm-4.7-2.784c-.814-.426-1.643-.832-2.464-1.205l.2-.394c.829.377,1.666.786,2.488,1.217Zm-34.067-.292-.273-.354a25.542,25.542,0,0,1,2.372-1.427l.228.381a25,25,0,0,0-2.327,1.4m29.067-1.976c-.862-.331-1.738-.636-2.6-.906l.147-.415c.875.273,1.76.582,2.631.916Zm-24.262-.579-.184-.4c.855-.347,1.743-.656,2.638-.919l.139.417c-.88.259-1.752.563-2.593.9m19-1.061c-.9-.216-1.814-.4-2.711-.545l.079-.431c.909.148,1.832.334,2.746.552Zm-13.726-.491-.093-.428c.92-.176,1.857-.308,2.784-.392l.045.436c-.911.083-1.831.212-2.735.385m8.267-.393c-.919-.077-1.843-.115-2.749-.115l-.018-.437h.018c.919,0,1.858.039,2.79.117Z" transform="translate(-781.234 -78.788)" fill="#4c59e0"/>
      </g>
    </g>
    <rect id="Rectangle_85" data-name="Rectangle 85" width="208.173" height="201.605" transform="translate(77.661 308.651)" fill="none"/>
    <g id="Group_29" data-name="Group 29" transform="translate(-63.304 87.585)">
      <g id="Group_7" data-name="Group 7" transform="translate(166.477 404.935)">
        <ellipse id="Ellipse_21" data-name="Ellipse 21" cx="27.988" cy="2.902" rx="27.988" ry="2.902" fill="#ededed"/>
        <ellipse id="Ellipse_22" data-name="Ellipse 22" cx="27.988" cy="2.902" rx="27.988" ry="2.902" transform="translate(66.342)" fill="#ededed"/>
      </g>
      <g id="Group_28" data-name="Group 28" transform="translate(112.937 232.188)">
        <g id="Group_8" data-name="Group 8" transform="translate(126.646)">
          <path id="Path_49" data-name="Path 49" d="M282.07,240.278a4.28,4.28,0,0,1,1.464-2.128c1-.6,3.458-2.528,3.126-3.059s-1.729.4-1.729.4,1.4-2.062.865-2.86-4.257-.532-4.789.931.134,3.858-.133,4.789l-.4,1.4Z" transform="translate(-268.187 -232.188)" fill="#ffcbb9"/>
          <path id="Path_50" data-name="Path 50" d="M310.063,401.857s-.4,11.706,1.729,12.5,4.124-4.123,4.257-7.981c-.133-3.99-.8-5.453-.8-5.453a1.2,1.2,0,0,0,.665-1.73c-.665-1.2-2.261-3.059-3.325-2.261S310.063,401.857,310.063,401.857Z" transform="translate(-273.233 -260.283)" fill="#6bb5f3"/>
          <path id="Path_51" data-name="Path 51" d="M307.548,353.682s8.228,8.336,10.271,7.339-.161-5.83-2.871-8.578c-2.99-2.646-4.51-3.169-4.51-3.169a1.2,1.2,0,0,0-.8-1.672c-1.327-.34-3.777-.461-3.928.861S307.548,353.682,307.548,353.682Z" transform="translate(-272.494 -251.854)" fill="#6bb5f3"/>
          <path id="Path_52" data-name="Path 52" d="M267.636,327.2s-4.788,27.934.532,33.787,31.924-5.853,33.786-9.843-2.926-8.247-5.321-6.917-15.7,7.715-16.494,5.054,3.193-21.017,1.863-23.677S269.764,324.009,267.636,327.2Z" transform="translate(-265.657 -247.88)" fill="#444"/>
          <path id="Path_53" data-name="Path 53" d="M292.856,324.265a159.057,159.057,0,0,0,0,20.041c.71,10.642.71,15.43,1.6,16.672s13.125,20.219,13.479,23.766-3.9,5.676-6.562,4.079-17.381-19.509-18.8-24.475-8.691-29.442-6.385-36.713S291.083,319.831,292.856,324.265Z" transform="translate(-267.378 -247.426)" fill="#616161"/>
          <path id="Path_54" data-name="Path 54" d="M315.951,287.568a2.573,2.573,0,0,0,.532-2.305,6.541,6.541,0,0,1,.355-4.523c.621-.887.709,1.773.709,1.773s.444-4.611.887-4.611,1.862,3.281,1.774,5.143-1.774,2.926-2.129,4.789Z" transform="translate(-274.244 -239.993)" fill="#ffcbb9"/>
          <path id="Path_55" data-name="Path 55" d="M282.471,275.442a15.453,15.453,0,0,0-8.868,7.982c-2.838,6.207-7.8,25.539-6.562,34.585,1.241,5.5,19.863,4.079,25.185-1.065.709-4.079,3.724-19.332.532-34.585C292.048,278.635,288.147,275.442,282.471,275.442Z" transform="translate(-265.86 -239.573)" fill="#6bb5f3"/>
          <path id="Path_56" data-name="Path 56" d="M289.352,252.892s-5.409,5.5-4.878,11.174c.8,4.7,2.749,5.054-.177,8.158,0,0,2.217,3.192,6.385,1.064,0,0-1.951-2.306,1.419-4.257,2.542-1.472,6.562-6.385,7.094-10.641s-1.6-6.03-4.434-6.74S290.15,251.827,289.352,252.892Z" transform="translate(-268.839 -235.467)" fill="#ffcbb9"/>
          <path id="Path_57" data-name="Path 57" d="M289.965,283.786s5.853,15.43,14.366,21.46c6.385,1.065-5.321-23.943-9.755-25.362S289.965,283.786,289.965,283.786Z" transform="translate(-269.807 -240.29)" fill="#6bb5f3"/>
          <path id="Path_58" data-name="Path 58" d="M276.149,282.41s-6.745-15.061-4.971-25.342c3.772-5.261,13.131,20.716,10.991,24.851S276.149,282.41,276.149,282.41Z" transform="translate(-266.549 -236.316)" fill="#6bb5f3"/>
          <path id="Path_59" data-name="Path 59" d="M306.433,305.3s3.193-10.819,8.158-17.026l2.306,1.064s-1.064,7.626-3.9,13.124S306.433,307.961,306.433,305.3Z" transform="translate(-272.619 -241.764)" fill="#6bb5f3"/>
          <path id="Path_60" data-name="Path 60" d="M274.32,257.9s5.771-9.693,6.953-17.553l-2.347-.969s-4.874,5.962-6.982,11.779S272.368,259.711,274.32,257.9Z" transform="translate(-266.595 -233.416)" fill="#6bb5f3"/>
          <path id="Path_61" data-name="Path 61" d="M299.621,251.644s-8.114-4.39-9.976-2.794,6.917,5.454,6.917,5.454-2.395,2.128-1.729,2.793,3.724-.8,3.724-.8-2.394,3.99-1.863,4.389,1.863-1.863,2.261-1.2-3.99,5.454-3.724,6.784,5.054-1.863,6.385-5.986c0,0,.8,3.458,1.064,1.463a12.575,12.575,0,0,0-.532-4.522s1.862,1.862,2.128.93-3.059-3.724-3.059-3.724-.266-4.389-1.464-4.788S299.621,251.644,299.621,251.644Z" transform="translate(-269.708 -234.973)" fill="#5187e1"/>
          <path id="Path_62" data-name="Path 62" d="M289.164,258.686s-2.261,3.592-1.729,4.257,3.059,1.064,3.193.532-2-1.463-2-1.463S290.628,257.887,289.164,258.686Z" transform="translate(-269.361 -236.695)" fill="#e0627a"/>
        </g>
        <g id="Group_11" data-name="Group 11" transform="translate(42.348 38.288)">
          <path id="Path_63" data-name="Path 63" d="M201.466,278.8l-2.8,1.132a14.73,14.73,0,0,0-3.738,1.945,7.51,7.51,0,0,0-2.644,7.132c.359,1.876,1.448,3.629,1.358,5.536s-1.324,3.522-2.353,5.124-1.919,3.571-1.257,5.356c.289.779.851,1.436,1.121,2.222a4.9,4.9,0,0,1-.7,3.984c-.711,1.2-1.68,2.222-2.42,3.4-1.838,2.928-2,7.067.268,9.676,1.739,2,4.472,2.764,7.058,3.345a17.111,17.111,0,0,0,3.825.539,9.869,9.869,0,0,0,7.272-3.427,11.2,11.2,0,0,0,2.629-7.655c-.051-1.5-.384-3.038.024-4.486.874-3.1,4.584-4.35,6.6-6.863a7.394,7.394,0,0,0,1.12-7.128c-.529-1.384-1.472-2.581-1.985-3.971-.764-2.07-.51-4.352-.57-6.557s-.584-4.632-2.37-5.926c-1.557-1.129-3.69-1.11-5.357-2.071-1.1-.635-2.06-1.713-3.332-1.751A4.412,4.412,0,0,0,201.466,278.8Z" transform="translate(-167.866 -278.359)" fill="#5d6e79"/>
          <path id="Path_64" data-name="Path 64" d="M220.241,307.344s8.76,5.783,12.616,12.265c2.1,5.257-4,4.518-8.41,1.928C216.386,316.806,213.933,306.292,220.241,307.344Z" transform="translate(-172.995 -283.295)" fill="#e0627a"/>
          <path id="Path_65" data-name="Path 65" d="M225.857,361.67s1.051,12.616-2.1,17.347-29.436,8.673-31.013,6.307,6.307-4.467,12.09-6.57,11.3-6.833,9.988-15.769S225.857,361.67,225.857,361.67Z" transform="translate(-168.875 -292.065)" fill="#edb69f"/>
          <path id="Path_66" data-name="Path 66" d="M227.159,342.011s3.942,7.622,3.942,14.455c-.526,4.205-10.776,5.782-13.666,3.417s-3.417-17.61-3.417-17.61Z" transform="translate(-172.542 -289.226)" fill="#444"/>
          <path id="Path_67" data-name="Path 67" d="M204.428,351.626a48.661,48.661,0,0,1,5.664,20.675c.849,10.2-12.744,31.152-11.611,35.684,1.133,4.248,16.709-15.011,20.107-26.056s1.133-25.772-1.133-30.02S204.428,351.626,204.428,351.626Z" transform="translate(-169.878 -290.581)" fill="#ffcbb9"/>
          <path id="Path_68" data-name="Path 68" d="M205.3,343.411s-2.628,4.731,1.84,14.718c1.577,4.468,10.776,3.417,14.718.526,1.84-2.1-1.839-11.038-.789-14.981S207.668,340.52,205.3,343.411Z" transform="translate(-170.923 -289.049)" fill="#616161"/>
          <path id="Path_69" data-name="Path 69" d="M212.326,306.055s5.082.526,6.658,2.629,1.577,4.205,3.33,6.833-.877,4.906.35,8.76.7,4.03,2.979,7.535,0,5.081-2.8,6.833-16.12,2.278-19.274-1.577-.526-4.73.35-7.709.526-8.585,0-13.667,1.051-7.534,4.731-8.936S212.326,306.055,212.326,306.055Z" transform="translate(-170.5 -283.057)" fill="#e0627a"/>
          <path id="Path_70" data-name="Path 70" d="M173.684,325.174a2.572,2.572,0,0,1-2.276-.645,6.54,6.54,0,0,0-4.134-1.868c-1.076.117,1.212,1.476,1.212,1.476s-4.254-1.834-4.468-1.445,1.978,3.213,3.652,4.034,3.419-.144,5.221.443Z" transform="translate(-164.003 -285.918)" fill="#ffcbb9"/>
          <path id="Path_71" data-name="Path 71" d="M251.041,319.4s1.449-.429,1.711-1.635a6.536,6.536,0,0,1,2.779-3.586c1.005-.4-.381,1.872-.381,1.872s2.9-3.611,3.272-3.368-.245,3.765-1.341,5.272-3.088,1.473-4.407,2.835Z" transform="translate(-178.863 -284.217)" fill="#ffcbb9"/>
          <path id="Path_72" data-name="Path 72" d="M209.5,284.075s5.409,5.5,4.877,11.174c-.8,4.7-2.749,5.054.177,8.158,0,0-2.217,3.193-6.385,1.064,0,0,1.95-2.305-1.419-4.257-2.542-1.471-6.562-6.385-7.094-10.641s1.6-6.03,4.434-6.739S208.7,283.011,209.5,284.075Z" transform="translate(-170.077 -279.079)" fill="#ffcbb9"/>
          <path id="Path_73" data-name="Path 73" d="M212.1,289.869s2.261,3.592,1.73,4.257-3.06,1.065-3.193.532,2-1.464,2-1.464S210.635,289.071,212.1,289.869Z" transform="translate(-171.964 -280.306)" fill="#e0627a"/>
          <path id="Path_74" data-name="Path 74" d="M203.092,309.88s-8.76,5.782-12.615,12.265c-2.1,5.256,4,4.518,8.41,1.927C206.947,319.341,209.4,308.828,203.092,309.88Z" transform="translate(-168.45 -283.728)" fill="#e0627a"/>
          <path id="Path_75" data-name="Path 75" d="M189.332,325.249c-.6,0-12.923-.794-15.706.4-2.187,1.193,2.386,3.976,6.76,4.573s13.519-.8,15.9-4.175S189.332,325.249,189.332,325.249Z" transform="translate(-165.55 -286.203)" fill="#e0627a"/>
          <path id="Path_76" data-name="Path 76" d="M233.357,322.033c.59-.087,12.667-2.676,15.6-1.9,2.338.86-1.779,4.282-6.018,5.512s-13.491,1.19-16.345-1.8S233.357,322.033,233.357,322.033Z" transform="translate(-174.598 -285.466)" fill="#e0627a"/>
          <g id="Group_9" data-name="Group 9" transform="translate(24.48 113.925)">
            <path id="Path_77" data-name="Path 77" d="M194.749,419.659s-1.226,1.139-1.226,1.84,1.4,1.752,2.1,3.417a23.559,23.559,0,0,0,5.782,7.71c2.1,1.576,2.409,1.489,2.409,1.489l.92-.964s-6.57-8.323-6.833-8.585S194.749,419.659,194.749,419.659Z" transform="translate(-193.523 -416.408)" fill="#f5f5f5"/>
            <path id="Path_78" data-name="Path 78" d="M197.721,419.69c.614,1.84,3.12,4.293,4.714,3.111-.789-1.709-.29-4.862-.29-4.862s-1.809-2.51-3.285-2.169C198.861,415.77,197.108,417.851,197.721,419.69Z" transform="translate(-194.218 -415.738)" fill="#ffcbb9"/>
            <path id="Path_79" data-name="Path 79" d="M201.882,422.9c-1.595,1.183-4.1-1.27-4.714-3.111a4.274,4.274,0,0,1,.814-3.472c-1.47.561-3.5,2.648-3.625,3.619-.137,1.043,1.134,1.96,2.614,4.782,1.231,2.557,6.59,8.526,7.552,8.166a3.011,3.011,0,0,0,1.134-1.818C205.686,428.1,202.67,424.61,201.882,422.9Z" transform="translate(-193.664 -415.837)" fill="#e0627a"/>
          </g>
          <g id="Group_10" data-name="Group 10" transform="translate(20.251 90.028)">
            <path id="Path_80" data-name="Path 80" d="M190.375,388.707s-1.592.516-1.887,1.151.533,2.18.467,3.985a23.567,23.567,0,0,0,2,9.428c1.242,2.316,1.557,2.366,1.557,2.366l1.241-.486s-2.453-10.317-2.58-10.666S190.375,388.707,190.375,388.707Z" transform="translate(-188.424 -387.227)" fill="#f5f5f5"/>
            <path id="Path_81" data-name="Path 81" d="M192.907,390c-.219,1.927,1.021,5.208,2.965,4.807.006-1.882,1.786-4.532,1.786-4.532s-.584-3.038-2.067-3.35C195.591,386.922,193.126,388.07,192.907,390Z" transform="translate(-189.185 -386.922)" fill="#edb69f"/>
            <path id="Path_82" data-name="Path 82" d="M195.3,394.858c-1.944.4-3.184-2.88-2.965-4.807a4.276,4.276,0,0,1,2.2-2.806c-1.571-.11-4.288.928-4.813,1.756-.563.888.2,2.255.356,5.438.041,2.837,2.385,10.508,3.41,10.587a3.006,3.006,0,0,0,1.794-1.171C196.556,401.177,195.291,396.74,195.3,394.858Z" transform="translate(-188.611 -386.976)" fill="#e0627a"/>
          </g>
          <path id="Path_83" data-name="Path 83" d="M203.215,295.833a4.206,4.206,0,0,0-.1,2.751c.131.929.017,2.076-.819,2.5-.955.483-2.042-.351-2.709-1.188a15.2,15.2,0,0,1-2.807-12.983,9.138,9.138,0,0,1,3.525-5.519,6.624,6.624,0,0,1,6.868-.158,2.431,2.431,0,0,1,1.149,1.226,2.457,2.457,0,0,1-.913,2.4,9.995,9.995,0,0,0-1.919,1.9c-1.366,2.285.833,5.705-.909,7.718C204.155,294.959,203.546,295.281,203.215,295.833Z" transform="translate(-169.524 -278.699)" fill="#5d6e79"/>
        </g>
        <g id="Group_24" data-name="Group 24" transform="translate(24.768 23.231)">
          <g id="Group_13" data-name="Group 13" transform="translate(170.937)">
            <g id="Group_12" data-name="Group 12">
              <path id="Path_84" data-name="Path 84" d="M368.407,273.941c-1.93,6.367-8.51,12.984-13.679,11.418s-6.969-10.723-5.039-17.091,7.366-9.211,12.535-7.644S370.337,267.574,368.407,273.941Z" transform="translate(-348.933 -260.202)" fill="#6bb5f3"/>
              <path id="Path_85" data-name="Path 85" d="M366.707,264.9a7.836,7.836,0,0,1,2.035,9.207c-.207.483.577.715.781.236a8.606,8.606,0,0,0-2.217-10c-.391-.347-.992.206-.6.556Z" transform="translate(-351.946 -260.89)" fill="#fff"/>
              <path id="Path_86" data-name="Path 86" d="M367.173,279.24a28.34,28.34,0,0,1-2.518,3.5c-.336.4.216,1,.555.6a29.684,29.684,0,0,0,2.654-3.667.409.409,0,0,0-.691-.436Z" transform="translate(-351.6 -263.42)" fill="#fff"/>
            </g>
            <path id="Path_87" data-name="Path 87" d="M354.943,290.1s-1.9,1.343-1.491,2.107,2.616,1.219,3.154.849.036-2.228-.6-2.953S354.943,290.1,354.943,290.1Z" transform="translate(-349.695 -265.252)" fill="#6bb5f3"/>
          </g>
          <g id="Group_15" data-name="Group 15" transform="translate(8.259 73.281)">
            <g id="Group_14" data-name="Group 14">
              <path id="Path_88" data-name="Path 88" d="M172.505,362.536c-1.982,6.448-8.68,13.13-13.914,11.521s-7.022-10.9-5.04-17.347,7.5-9.309,12.739-7.7S174.487,356.088,172.505,362.536Z" transform="translate(-152.763 -348.57)" fill="#e0627a"/>
              <path id="Path_89" data-name="Path 89" d="M170.828,353.351a7.945,7.945,0,0,1,2.026,9.343c-.211.489.582.727.791.243a8.723,8.723,0,0,0-2.208-10.146c-.394-.354-1.006.2-.609.56Z" transform="translate(-155.826 -349.271)" fill="#fff"/>
              <path id="Path_90" data-name="Path 90" d="M171.241,367.9a28.667,28.667,0,0,1-2.566,3.543c-.342.4.215,1.014.56.609a29.98,29.98,0,0,0,2.7-3.707.414.414,0,0,0-.7-.444Z" transform="translate(-155.462 -351.837)" fill="#fff"/>
            </g>
            <path id="Path_91" data-name="Path 91" d="M158.8,378.859s-1.931,1.354-1.521,2.13,2.647,1.246,3.194.874.045-2.259-.594-3S158.8,378.859,158.8,378.859Z" transform="translate(-153.525 -353.686)" fill="#e0627a"/>
          </g>
          <g id="Group_17" data-name="Group 17" transform="translate(0 0.065)">
            <g id="Group_16" data-name="Group 16">
              <path id="Path_92" data-name="Path 92" d="M162.028,267.908c2.215,6.274.831,15.5-4.262,17.3s-11.966-4.515-14.181-10.788.482-11.785,5.575-13.583S159.813,261.635,162.028,267.908Z" transform="translate(-142.804 -260.28)" fill="#6bb5f3"/>
              <path id="Path_93" data-name="Path 93" d="M153.26,264.566a9.671,9.671,0,0,1,4.267,1.382c1.353.817,2.4-1.4,1.056-2.209a11.243,11.243,0,0,0-4.86-1.577,1.252,1.252,0,0,0-1.434.972,1.227,1.227,0,0,0,.972,1.433Z" transform="translate(-144.42 -260.6)" fill="#6bb5f3"/>
              <path id="Path_94" data-name="Path 94" d="M154.391,263.222a7.834,7.834,0,0,1,7.092,6.215c.12.512.889.235.77-.272a8.6,8.6,0,0,0-7.707-6.744c-.521-.049-.678.752-.154.8Z" transform="translate(-144.727 -260.645)" fill="#fff"/>
              <path id="Path_95" data-name="Path 95" d="M163.682,274.2a28.281,28.281,0,0,1,.046,4.315c-.035.519.767.677.8.153a29.655,29.655,0,0,0-.033-4.525.408.408,0,0,0-.814.057Z" transform="translate(-146.368 -262.584)" fill="#fff"/>
            </g>
            <path id="Path_96" data-name="Path 96" d="M160.031,290.3s-.736,2.207.046,2.581,2.829-.566,3.044-1.183-1.29-1.816-2.23-2.026S160.031,290.3,160.031,290.3Z" transform="translate(-145.692 -265.292)" fill="#6bb5f3"/>
          </g>
          <g id="Group_19" data-name="Group 19" transform="translate(165.397 99.142)">
            <g id="Group_18" data-name="Group 18">
              <path id="Path_97" data-name="Path 97" d="M361.738,393.174c-1.7,6.431-8.046,13.277-13.268,11.893s-7.343-10.471-5.639-16.9,7.037-9.465,12.258-8.082S363.442,386.742,361.738,393.174Z" transform="translate(-342.254 -379.754)" fill="#b3d5a8"/>
              <path id="Path_98" data-name="Path 98" d="M359.628,384.27a7.837,7.837,0,0,1,2.358,9.13c-.189.491.6.694.789.209a8.6,8.6,0,0,0-2.569-9.915c-.4-.333-.984.24-.578.576Z" transform="translate(-345.196 -380.41)" fill="#fff"/>
              <path id="Path_99" data-name="Path 99" d="M360.626,398.569a28.266,28.266,0,0,1-2.392,3.591c-.322.41.251.992.576.579a29.633,29.633,0,0,0,2.522-3.758.408.408,0,0,0-.7-.411Z" transform="translate(-344.966 -382.932)" fill="#fff"/>
            </g>
            <path id="Path_100" data-name="Path 100" d="M348.774,409.861s-1.852,1.41-1.416,2.158,2.657,1.126,3.182.738-.043-2.228-.7-2.931S348.774,409.861,348.774,409.861Z" transform="translate(-343.114 -384.837)" fill="#b3d5a8"/>
          </g>
          <g id="Group_21" data-name="Group 21" transform="translate(84.846 108.32)">
            <g id="Group_20" data-name="Group 20">
              <path id="Path_101" data-name="Path 101" d="M264.5,399.276c1.676,6.438-.484,15.516-5.711,16.877s-11.541-5.511-13.217-11.949,1.477-11.7,6.7-13.063S262.822,392.836,264.5,399.276Z" transform="translate(-245.119 -390.823)" fill="#a1dde9"/>
              <path id="Path_102" data-name="Path 102" d="M257.456,393.807A7.837,7.837,0,0,1,264,400.6c.076.521.865.309.789-.206a8.6,8.6,0,0,0-7.109-7.372c-.514-.093-.738.692-.221.785Z" transform="translate(-247.175 -391.197)" fill="#fff"/>
              <path id="Path_103" data-name="Path 103" d="M265.719,405.53a28.3,28.3,0,0,1-.319,4.3c-.079.514.707.74.786.221a29.67,29.67,0,0,0,.349-4.512.408.408,0,0,0-.816-.012Z" transform="translate(-248.58 -393.268)" fill="#fff"/>
            </g>
            <path id="Path_104" data-name="Path 104" d="M260.75,421.27s-.919,2.137-.172,2.575,2.868-.325,3.134-.921-1.133-1.919-2.051-2.207S260.75,421.27,260.75,421.27Z" transform="translate(-247.708 -395.916)" fill="#a1dde9"/>
          </g>
          <g id="Group_23" data-name="Group 23" transform="translate(151.948 47.23)">
            <g id="Group_22" data-name="Group 22">
              <path id="Path_105" data-name="Path 105" d="M342.283,323.016c2.314,5.19,1.765,13.14-2.448,15.018s-10.493-3.027-12.806-8.216-.394-10.064,3.819-11.942S339.969,317.827,342.283,323.016Z" transform="translate(-326.036 -317.156)" fill="#e0627a"/>
              <path id="Path_106" data-name="Path 106" d="M335.337,319.68a6.692,6.692,0,0,1,6.461,4.806c.137.428.772.139.637-.284a7.348,7.348,0,0,0-7.021-5.215c-.446-.007-.525.687-.076.692Z" transform="translate(-327.573 -317.468)" fill="#fff"/>
              <path id="Path_107" data-name="Path 107" d="M343.994,328.391a24.185,24.185,0,0,1,.333,3.67c.006.444.7.525.692.076a25.38,25.38,0,0,0-.337-3.85.349.349,0,0,0-.689.1Z" transform="translate(-329.101 -319.007)" fill="#fff"/>
            </g>
            <path id="Path_108" data-name="Path 108" d="M342.01,342.335s-.475,1.93.216,2.194a2.868,2.868,0,0,0,2.51-1.215c.141-.54-1.222-1.459-2.036-1.572S342.01,342.335,342.01,342.335Z" transform="translate(-328.736 -321.351)" fill="#e0627a"/>
          </g>
        </g>
        <g id="Group_27" data-name="Group 27" transform="translate(0 28.084)">
          <g id="Group_25" data-name="Group 25">
            <circle id="Ellipse_23" data-name="Ellipse 23" cx="1.378" cy="1.378" r="1.378" transform="translate(22.558 33.578)" fill="#6bb5f3"/>
            <path id="Path_109" data-name="Path 109" d="M251.426,345.576a1.378,1.378,0,1,1-1.377-1.377A1.377,1.377,0,0,1,251.426,345.576Z" transform="translate(-136.111 -279.396)" fill="#e0627a"/>
            <path id="Path_110" data-name="Path 110" d="M132.517,433.173a.861.861,0,1,1-.862-.862A.861.861,0,0,1,132.517,433.173Z" transform="translate(-115.986 -294.439)" fill="#6bb5f3"/>
            <path id="Path_111" data-name="Path 111" d="M134.732,375.585a.861.861,0,1,1-.862-.862A.861.861,0,0,1,134.732,375.585Z" transform="translate(-116.364 -284.607)" fill="#a1dde9"/>
            <path id="Path_112" data-name="Path 112" d="M130.015,333.288a1.894,1.894,0,1,1-1.894-1.894A1.893,1.893,0,0,1,130.015,333.288Z" transform="translate(-115.206 -277.209)" fill="#e0627a"/>
            <path id="Path_113" data-name="Path 113" d="M194.248,366.512a1.894,1.894,0,1,1-1.894-1.894A1.894,1.894,0,0,1,194.248,366.512Z" transform="translate(-126.173 -282.882)" fill="#6bb5f3"/>
            <path id="Path_114" data-name="Path 114" d="M228.579,409.7a1.894,1.894,0,1,1-1.894-1.894A1.894,1.894,0,0,1,228.579,409.7Z" transform="translate(-132.034 -290.256)" fill="#b3d5a8"/>
            <path id="Path_115" data-name="Path 115" d="M156.594,406.381a1.894,1.894,0,1,1-1.894-1.895A1.894,1.894,0,0,1,156.594,406.381Z" transform="translate(-119.744 -289.688)" fill="#e0627a"/>
            <path id="Path_116" data-name="Path 116" d="M116.726,267.948a1.894,1.894,0,1,1-1.894-1.894A1.894,1.894,0,0,1,116.726,267.948Z" transform="translate(-112.937 -266.054)" fill="#e0627a"/>
          </g>
          <g id="Group_26" data-name="Group 26" transform="translate(117.553 14.694)">
            <circle id="Ellipse_24" data-name="Ellipse 24" cx="1.378" cy="1.378" r="1.378" transform="translate(96.43 33.579)" fill="#6bb5f3"/>
            <path id="Path_117" data-name="Path 117" d="M254.692,373.263a1.378,1.378,0,1,0,1.377-1.377A1.378,1.378,0,0,0,254.692,373.263Z" transform="translate(-254.692 -298.817)" fill="#6bb5f3"/>
            <path id="Path_118" data-name="Path 118" d="M381.566,450.892a.861.861,0,1,0,.861-.861A.861.861,0,0,0,381.566,450.892Z" transform="translate(-276.353 -312.158)" fill="#6bb5f3"/>
            <path id="Path_119" data-name="Path 119" d="M379.351,393.3a.861.861,0,1,0,.861-.861A.861.861,0,0,0,379.351,393.3Z" transform="translate(-275.975 -302.326)" fill="#a1dde9"/>
            <path id="Path_120" data-name="Path 120" d="M383.642,351.007a1.894,1.894,0,1,0,1.894-1.894A1.895,1.895,0,0,0,383.642,351.007Z" transform="translate(-276.708 -294.928)" fill="#e0627a"/>
            <path id="Path_121" data-name="Path 121" d="M319.409,384.231a1.894,1.894,0,1,0,1.895-1.894A1.895,1.895,0,0,0,319.409,384.231Z" transform="translate(-265.741 -300.601)" fill="#6bb5f3"/>
            <path id="Path_122" data-name="Path 122" d="M285.078,427.422a1.894,1.894,0,1,0,1.894-1.894A1.894,1.894,0,0,0,285.078,427.422Z" transform="translate(-259.88 -307.975)" fill="#b3d5a8"/>
            <circle id="Ellipse_25" data-name="Ellipse 25" cx="1.894" cy="1.894" r="1.894" transform="translate(84.893 114.798)" fill="#e0627a"/>
            <path id="Path_123" data-name="Path 123" d="M396.932,285.667a1.894,1.894,0,1,0,1.894-1.894A1.894,1.894,0,0,0,396.932,285.667Z" transform="translate(-278.977 -283.773)" fill="#e0627a"/>
          </g>
        </g>
      </g>
    </g>
    <g id="Group_157" data-name="Group 157" transform="translate(60.313 307.233)" opacity="0.1">
      <g id="Group_156" data-name="Group 156">
        <g id="Group_155" data-name="Group 155" clip-path="url(#clip-path-2)">
          <path id="Path_316" data-name="Path 316" d="M812.2,138.319,769.17,176.777,801.3,212.719l43.026-38.458L812.2,138.319" transform="translate(-769.17 -138.319)" fill="#444"/>
        </g>
      </g>
    </g>
    <path id="Path_318" data-name="Path 318" d="M805.509,138.3l32.126,35.943L794.61,212.7l-32.126-35.943Z" transform="translate(-706.217 168.923)" fill="#f0f0fc"/>
    <path id="Path_319" data-name="Path 319" d="M806.86,141.058l30.457,34.074-41.408,37.011-30.456-34.074Z" transform="translate(-707.389 167.832)" fill="#daf3ff"/>
    <path id="Path_320" data-name="Path 320" d="M805.354,239.288,789.366,221.4c.317-.293.636-.592.958-.879,13.706-12.251,31.982-14.272,41.325-4.739Z" transform="translate(-716.834 140.688)" fill="#46b09e"/>
    <path id="Path_321" data-name="Path 321" d="M834.511,157.614a6.828,6.828,0,1,1-9.645-.541,6.831,6.831,0,0,1,9.645.541" transform="translate(-729.955 162.194)" fill="#ffd23c"/>
    <path id="Path_322" data-name="Path 322" d="M825.672,218.487s-1.736-33.778,20.979-47.807l14.437,16.152Z" transform="translate(-731.16 156.133)" fill="#31c9ac"/>
    <path id="Path_449" data-name="Path 449" d="M753.479,317.3a.651.651,0,1,1-.9.2.651.651,0,0,1,.9-.2" transform="translate(-702.266 98.267)" fill="#4c59e0"/>
    <path id="Path_450" data-name="Path 450" d="M778.452,277.719a.651.651,0,1,1-.9.2.651.651,0,0,1,.9-.2" transform="translate(-712.129 113.899)" fill="#4c59e0"/>
    <path id="Path_451" data-name="Path 451" d="M809.9,352.9a.651.651,0,1,1-.9.2.65.65,0,0,1,.9-.2" transform="translate(-724.547 84.209)" fill="#4c59e0"/>
    <path id="Path_459" data-name="Path 459" d="M793.164,309.222a.458.458,0,1,1-.615-.2.459.459,0,0,1,.615.2" transform="translate(-717.99 101.518)" fill="#e1e1ef"/>
    <path id="Path_462" data-name="Path 462" d="M1084.73,115.421h0l9.726-5.363Z" transform="translate(-833.483 180.075)" fill="#e1e0fe"/>
    <path id="Path_470" data-name="Path 470" d="M1083.65,252.917a.752.752,0,0,1-.943.49l-18.25-5.771a.751.751,0,1,1,.453-1.432l18.251,5.771a.752.752,0,0,1,.49.942" transform="translate(-825.27 126.32)" fill="#ffd23c"/>
    <path id="Path_479" data-name="Path 479" d="M1074.594,273.733a2.826,2.826,0,1,1-1.842-3.547,2.826,2.826,0,0,1,1.842,3.547" transform="translate(-827.299 116.887)" fill="#cacaed"/>
    <path id="Path_490" data-name="Path 490" d="M745.2,265.678s-1.536-4.113.107-6.314-.522-3.451-1.542-5.1.9-4.656,2.676-5.613l2.041,1.645s-2.927,2.016-1.4,4.155,3.324,4.138.69,6.435.429,5.148.429,5.148Z" transform="translate(-698.713 125.339)" fill="#ffd23c"/>
    <path id="Path_491" data-name="Path 491" d="M746.155,280.827l2.924-8.054-8.437,1.494Z" transform="translate(-697.59 115.813)" fill="#ffd23c"/>
    <path id="Path_492" data-name="Path 492" d="M1161.277,367.154a3.264,3.264,0,1,1-3.265-3.264,3.264,3.264,0,0,1,3.265,3.264" transform="translate(-861.137 79.828)" fill="#31c9ac"/>
    <path id="Path_493" data-name="Path 493" d="M798.944,133.81a3.264,3.264,0,1,1-3.264-3.264,3.264,3.264,0,0,1,3.264,3.264" transform="translate(-718.038 171.984)" fill="#31c9ac"/>
    <path id="Path_494" data-name="Path 494" d="M1130.083,169.371a1.632,1.632,0,1,1-1.632-1.632,1.632,1.632,0,0,1,1.632,1.632" transform="translate(-850.105 157.295)" fill="#31c9ac"/>
    <path id="Path_495" data-name="Path 495" d="M1132.014,91.038a2.269,2.269,0,1,1-2.269-2.269,2.269,2.269,0,0,1,2.269,2.269" transform="translate(-850.365 188.483)" fill="#31c9ac"/>
    <g id="pencil" transform="translate(254.787 382.068)">
      <path id="Path_496" data-name="Path 496" d="M37.6,11.125,13.259,35.133S.805,38.845.237,38.276,3.081,24.955,3.081,24.955L27.418.947a2.929,2.929,0,0,1,4.221,0L37.6,6.934A2.945,2.945,0,0,1,37.6,11.125Z" transform="translate(-0.024 -0.045)" fill="#2394bc"/>
      <path id="Path_497" data-name="Path 497" d="M38.735,27.9,65.468,1.171l-.3-.3A2.955,2.955,0,0,0,60.947.9L36.64,24.94s-.06.24-.18.659l2.275,2.3Z" transform="translate(-33.554)" fill="#44a4c6"/>
      <path id="Path_498" data-name="Path 498" d="M161.336,86.195a3.028,3.028,0,0,0-.659-3.233l-.6-.6L133.346,109.1l2.335,2.305q.494-.135.629-.18Z" transform="translate(-123.075 -76.103)" fill="#1f85a9"/>
      <path id="Path_499" data-name="Path 499" d="M.462,341.687l.18.18c1.407.21,12.214-2.994,12.872-3.2l.03-.03s-.688-3.233-1.287-3.8c-.6-.6-3.2-.688-3.8-1.257-.6-.6-.659-3.2-1.287-3.8-.6-.6-3.652-1.227-3.8-1.257,0-.03-3.143,11.675-2.9,13.172Z" transform="translate(-0.279 -303.546)" fill="#ffcaba"/>
      <path id="Path_500" data-name="Path 500" d="M.223,341.537c.21-.359,1.257-2.215,6.706-11.765-.6-.6-3.652-1.227-3.8-1.257C3.157,328.485.193,339.562.223,341.537Z" transform="translate(-0.071 -303.546)" fill="#ffdcd2"/>
      <path id="Path_501" data-name="Path 501" d="M.226,417.989v.09l.18.18c1.407.21,12.214-2.994,12.872-3.2l.03-.03s-.659-3.2-1.257-3.8C2.142,416.912.5,417.84.226,417.989Z" transform="translate(-0.074 -379.968)" fill="#e5b5a7"/>
      <path id="Path_502" data-name="Path 502" d="M2.218,463.96a2.805,2.805,0,0,0-1.646-.748c-.329,1.676-.539,2.9-.359,3.083A7.545,7.545,0,0,0,3,465.936,2.944,2.944,0,0,0,2.218,463.96Z" transform="translate(0 -428.004)" fill="#2394bc"/>
    </g>
    <g id="share" transform="translate(70.039 461.655)">
      <circle id="Ellipse_125" data-name="Ellipse 125" cx="3.956" cy="3.956" r="3.956" transform="translate(2 8.586)" fill="#7383bf"/>
      <circle id="Ellipse_126" data-name="Ellipse 126" cx="3.5" cy="3.5" r="3.5" transform="translate(17.961 17.345)" fill="#7383bf"/>
      <circle id="Ellipse_127" data-name="Ellipse 127" cx="3.5" cy="3.5" r="3.5" transform="translate(17.961 0.345)" fill="#7383bf"/>
      <g id="Group_212" data-name="Group 212" transform="translate(9.04 5.295)">
        <path id="Path_597" data-name="Path 597" d="M18.456,17.857a.434.434,0,0,0,.226-.063l8.312-5.006a.44.44,0,0,0-.454-.753l-8.311,5.007a.44.44,0,0,0,.227.816Z" transform="translate(-18.016 -11.971)" fill="#424a60"/>
        <path id="Path_598" data-name="Path 598" d="M26.995,36.657l-8.311-5.045a.439.439,0,1,0-.456.751l8.311,5.045a.435.435,0,0,0,.228.064.44.44,0,0,0,.229-.815Z" transform="translate(-18.016 -22.942)" fill="#424a60"/>
      </g>
    </g>
  </g>
</svg>
