<svg xmlns="http://www.w3.org/2000/svg" width="239.297" height="200.002" viewBox="0 0 239.297 200.002">
  <g id="Group_222" data-name="Group 222" transform="translate(-60.633 -314.143)">
    <rect id="Rectangle_20" data-name="Rectangle 20" width="114.037" height="146.439" rx="9" transform="translate(128 315.143)" fill="#f1f1f1" stroke="#ededed" stroke-width="2" opacity="0.456"/>
    <path id="Path_129" data-name="Path 129" d="M478.209,303.868H408.6a8.527,8.527,0,0,1-8.527-8.527h0a8.527,8.527,0,0,1,8.527-8.527h69.6a8.527,8.527,0,0,1,8.527,8.527h0A8.527,8.527,0,0,1,478.209,303.868Z" transform="translate(-258.603 72.581)" fill="#e7e6e9"/>
    <path id="Path_130" data-name="Path 130" d="M478.209,303.868H408.6a8.527,8.527,0,0,1-8.527-8.527h0a8.527,8.527,0,0,1,8.527-8.527h69.6a8.527,8.527,0,0,1,8.527,8.527h0A8.527,8.527,0,0,1,478.209,303.868Z" transform="translate(-258.603 96.358)" fill="#e7e6e9"/>
    <path id="Path_131" data-name="Path 131" d="M425.33,303.868H408.6a8.527,8.527,0,0,1-8.527-8.527h0a8.527,8.527,0,0,1,8.527-8.527H425.33a8.527,8.527,0,0,1,8.527,8.527h0A8.527,8.527,0,0,1,425.33,303.868Z" transform="translate(-205.501 120.135)" fill="#ff8e12"/>
    <circle id="Ellipse_29" data-name="Ellipse 29" cx="2" cy="2" r="2" transform="translate(150 390)" fill="#505e60"/>
    <circle id="Ellipse_30" data-name="Ellipse 30" cx="2" cy="2" r="2" transform="translate(157 390)" fill="#505e60"/>
    <circle id="Ellipse_31" data-name="Ellipse 31" cx="2" cy="2" r="2" transform="translate(164 390)" fill="#505e60"/>
    <ellipse id="Ellipse_32" data-name="Ellipse 32" cx="1.5" cy="2" rx="1.5" ry="2" transform="translate(172 390)" fill="#505e60"/>
    <rect id="Rectangle_21" data-name="Rectangle 21" width="35" height="3" transform="translate(150 367)" fill="#505e60" opacity="0.237"/>
    <rect id="Rectangle_22" data-name="Rectangle 22" width="19" height="3" transform="translate(202 414)" fill="#fff" opacity="0.237"/>
    <ellipse id="Ellipse_22" data-name="Ellipse 22" cx="89.488" cy="2.902" rx="89.488" ry="2.902" transform="translate(97.515 504.52)" fill="#ededed"/>
    <g id="Group_24" data-name="Group 24" transform="translate(85.401 355.004)">
      <g id="Group_13" data-name="Group 13" transform="translate(170.937)">
        <g id="Group_12" data-name="Group 12">
          <path id="Path_84" data-name="Path 84" d="M368.407,273.941c-1.93,6.367-8.51,12.984-13.679,11.418s-6.969-10.723-5.039-17.091,7.366-9.211,12.535-7.644S370.337,267.574,368.407,273.941Z" transform="translate(-348.933 -260.202)" fill="#6bb5f3"/>
          <path id="Path_85" data-name="Path 85" d="M366.707,264.9a7.836,7.836,0,0,1,2.035,9.207c-.207.483.577.715.781.236a8.606,8.606,0,0,0-2.217-10c-.391-.347-.992.206-.6.556Z" transform="translate(-351.946 -260.89)" fill="#fff"/>
          <path id="Path_86" data-name="Path 86" d="M367.173,279.24a28.34,28.34,0,0,1-2.518,3.5c-.336.4.216,1,.555.6a29.684,29.684,0,0,0,2.654-3.667.409.409,0,0,0-.691-.436Z" transform="translate(-351.6 -263.42)" fill="#fff"/>
        </g>
        <path id="Path_87" data-name="Path 87" d="M354.943,290.1s-1.9,1.343-1.491,2.107,2.616,1.219,3.154.849.036-2.228-.6-2.953S354.943,290.1,354.943,290.1Z" transform="translate(-349.695 -265.252)" fill="#6bb5f3"/>
      </g>
      <g id="Group_15" data-name="Group 15" transform="translate(8.259 73.281)">
        <g id="Group_14" data-name="Group 14">
          <path id="Path_88" data-name="Path 88" d="M172.505,362.536c-1.982,6.448-8.68,13.13-13.914,11.521s-7.022-10.9-5.04-17.347,7.5-9.309,12.739-7.7S174.487,356.088,172.505,362.536Z" transform="translate(-152.763 -348.57)" fill="#e0627a"/>
          <path id="Path_89" data-name="Path 89" d="M170.828,353.351a7.945,7.945,0,0,1,2.026,9.343c-.211.489.582.727.791.243a8.723,8.723,0,0,0-2.208-10.146c-.394-.354-1.006.2-.609.56Z" transform="translate(-155.826 -349.271)" fill="#fff"/>
          <path id="Path_90" data-name="Path 90" d="M171.241,367.9a28.667,28.667,0,0,1-2.566,3.543c-.342.4.215,1.014.56.609a29.98,29.98,0,0,0,2.7-3.707.414.414,0,0,0-.7-.444Z" transform="translate(-155.462 -351.837)" fill="#fff"/>
        </g>
        <path id="Path_91" data-name="Path 91" d="M158.8,378.859s-1.931,1.354-1.521,2.13,2.647,1.246,3.194.874.045-2.259-.594-3S158.8,378.859,158.8,378.859Z" transform="translate(-153.525 -353.686)" fill="#e0627a"/>
      </g>
      <g id="Group_17" data-name="Group 17" transform="translate(0 0.065)">
        <g id="Group_16" data-name="Group 16">
          <path id="Path_92" data-name="Path 92" d="M162.028,267.908c2.215,6.274.831,15.5-4.262,17.3s-11.966-4.515-14.181-10.788.482-11.785,5.575-13.583S159.813,261.635,162.028,267.908Z" transform="translate(-142.804 -260.28)" fill="#6bb5f3"/>
          <path id="Path_93" data-name="Path 93" d="M153.26,264.566a9.671,9.671,0,0,1,4.267,1.382c1.353.817,2.4-1.4,1.056-2.209a11.243,11.243,0,0,0-4.86-1.577,1.252,1.252,0,0,0-1.434.972,1.227,1.227,0,0,0,.972,1.433Z" transform="translate(-144.42 -260.6)" fill="#6bb5f3"/>
          <path id="Path_94" data-name="Path 94" d="M154.391,263.222a7.834,7.834,0,0,1,7.092,6.215c.12.512.889.235.77-.272a8.6,8.6,0,0,0-7.707-6.744c-.521-.049-.678.752-.154.8Z" transform="translate(-144.727 -260.645)" fill="#fff"/>
          <path id="Path_95" data-name="Path 95" d="M163.682,274.2a28.281,28.281,0,0,1,.046,4.315c-.035.519.767.677.8.153a29.655,29.655,0,0,0-.033-4.525.408.408,0,0,0-.814.057Z" transform="translate(-146.368 -262.584)" fill="#fff"/>
        </g>
        <path id="Path_96" data-name="Path 96" d="M160.031,290.3s-.736,2.207.046,2.581,2.829-.566,3.044-1.183-1.29-1.816-2.23-2.026S160.031,290.3,160.031,290.3Z" transform="translate(-145.692 -265.292)" fill="#6bb5f3"/>
      </g>
      <g id="Group_19" data-name="Group 19" transform="translate(165.397 99.142)">
        <g id="Group_18" data-name="Group 18">
          <path id="Path_97" data-name="Path 97" d="M361.738,393.174c-1.7,6.431-8.046,13.277-13.268,11.893s-7.343-10.471-5.639-16.9,7.037-9.465,12.258-8.082S363.442,386.742,361.738,393.174Z" transform="translate(-342.254 -379.754)" fill="#b3d5a8"/>
          <path id="Path_98" data-name="Path 98" d="M359.628,384.27a7.837,7.837,0,0,1,2.358,9.13c-.189.491.6.694.789.209a8.6,8.6,0,0,0-2.569-9.915c-.4-.333-.984.24-.578.576Z" transform="translate(-345.196 -380.41)" fill="#fff"/>
          <path id="Path_99" data-name="Path 99" d="M360.626,398.569a28.266,28.266,0,0,1-2.392,3.591c-.322.41.251.992.576.579a29.633,29.633,0,0,0,2.522-3.758.408.408,0,0,0-.7-.411Z" transform="translate(-344.966 -382.932)" fill="#fff"/>
        </g>
        <path id="Path_100" data-name="Path 100" d="M348.774,409.861s-1.852,1.41-1.416,2.158,2.657,1.126,3.182.738-.043-2.228-.7-2.931S348.774,409.861,348.774,409.861Z" transform="translate(-343.114 -384.837)" fill="#b3d5a8"/>
      </g>
      <g id="Group_21" data-name="Group 21" transform="translate(84.846 108.32)">
        <g id="Group_20" data-name="Group 20">
          <path id="Path_101" data-name="Path 101" d="M264.5,399.276c1.676,6.438-.484,15.516-5.711,16.877s-11.541-5.511-13.217-11.949,1.477-11.7,6.7-13.063S262.822,392.836,264.5,399.276Z" transform="translate(-245.119 -390.823)" fill="#a1dde9"/>
          <path id="Path_102" data-name="Path 102" d="M257.456,393.807A7.837,7.837,0,0,1,264,400.6c.076.521.865.309.789-.206a8.6,8.6,0,0,0-7.109-7.372c-.514-.093-.738.692-.221.785Z" transform="translate(-247.175 -391.197)" fill="#fff"/>
          <path id="Path_103" data-name="Path 103" d="M265.719,405.53a28.3,28.3,0,0,1-.319,4.3c-.079.514.707.74.786.221a29.67,29.67,0,0,0,.349-4.512.408.408,0,0,0-.816-.012Z" transform="translate(-248.58 -393.268)" fill="#fff"/>
        </g>
        <path id="Path_104" data-name="Path 104" d="M260.75,421.27s-.919,2.137-.172,2.575,2.868-.325,3.134-.921-1.133-1.919-2.051-2.207S260.75,421.27,260.75,421.27Z" transform="translate(-247.708 -395.916)" fill="#a1dde9"/>
      </g>
      <g id="Group_23" data-name="Group 23" transform="translate(151.948 47.23)">
        <g id="Group_22" data-name="Group 22">
          <path id="Path_105" data-name="Path 105" d="M342.283,323.016c2.314,5.19,1.765,13.14-2.448,15.018s-10.493-3.027-12.806-8.216-.394-10.064,3.819-11.942S339.969,317.827,342.283,323.016Z" transform="translate(-326.036 -317.156)" fill="#e0627a"/>
          <path id="Path_106" data-name="Path 106" d="M335.337,319.68a6.692,6.692,0,0,1,6.461,4.806c.137.428.772.139.637-.284a7.348,7.348,0,0,0-7.021-5.215c-.446-.007-.525.687-.076.692Z" transform="translate(-327.573 -317.468)" fill="#fff"/>
          <path id="Path_107" data-name="Path 107" d="M343.994,328.391a24.185,24.185,0,0,1,.333,3.67c.006.444.7.525.692.076a25.38,25.38,0,0,0-.337-3.85.349.349,0,0,0-.689.1Z" transform="translate(-329.101 -319.007)" fill="#fff"/>
        </g>
        <path id="Path_108" data-name="Path 108" d="M342.01,342.335s-.475,1.93.216,2.194a2.868,2.868,0,0,0,2.51-1.215c.141-.54-1.222-1.459-2.036-1.572S342.01,342.335,342.01,342.335Z" transform="translate(-328.736 -321.351)" fill="#e0627a"/>
      </g>
    </g>
    <g id="Group_27" data-name="Group 27" transform="translate(60.633 359.857)">
      <g id="Group_25" data-name="Group 25">
        <circle id="Ellipse_23" data-name="Ellipse 23" cx="1.378" cy="1.378" r="1.378" transform="translate(22.558 33.578)" fill="#6bb5f3"/>
        <path id="Path_109" data-name="Path 109" d="M251.426,345.576a1.378,1.378,0,1,1-1.377-1.377A1.377,1.377,0,0,1,251.426,345.576Z" transform="translate(-136.111 -279.396)" fill="#e0627a"/>
        <path id="Path_110" data-name="Path 110" d="M132.517,433.173a.861.861,0,1,1-.862-.862A.861.861,0,0,1,132.517,433.173Z" transform="translate(-115.986 -294.439)" fill="#6bb5f3"/>
        <path id="Path_111" data-name="Path 111" d="M134.732,375.585a.861.861,0,1,1-.862-.862A.861.861,0,0,1,134.732,375.585Z" transform="translate(-116.364 -284.607)" fill="#a1dde9"/>
        <path id="Path_112" data-name="Path 112" d="M130.015,333.288a1.894,1.894,0,1,1-1.894-1.894A1.893,1.893,0,0,1,130.015,333.288Z" transform="translate(-115.206 -277.209)" fill="#e0627a"/>
        <path id="Path_113" data-name="Path 113" d="M194.248,366.512a1.894,1.894,0,1,1-1.894-1.894A1.894,1.894,0,0,1,194.248,366.512Z" transform="translate(-126.173 -282.882)" fill="#6bb5f3"/>
        <path id="Path_114" data-name="Path 114" d="M228.579,409.7a1.894,1.894,0,1,1-1.894-1.894A1.894,1.894,0,0,1,228.579,409.7Z" transform="translate(-132.034 -290.256)" fill="#b3d5a8"/>
        <path id="Path_115" data-name="Path 115" d="M156.594,406.381a1.894,1.894,0,1,1-1.894-1.895A1.894,1.894,0,0,1,156.594,406.381Z" transform="translate(-119.744 -289.688)" fill="#e0627a"/>
        <path id="Path_116" data-name="Path 116" d="M116.726,267.948a1.894,1.894,0,1,1-1.894-1.894A1.894,1.894,0,0,1,116.726,267.948Z" transform="translate(-112.937 -266.054)" fill="#e0627a"/>
      </g>
      <g id="Group_26" data-name="Group 26" transform="translate(117.553 14.694)">
        <circle id="Ellipse_24" data-name="Ellipse 24" cx="1.378" cy="1.378" r="1.378" transform="translate(96.43 33.579)" fill="#6bb5f3"/>
        <path id="Path_117" data-name="Path 117" d="M254.692,373.263a1.378,1.378,0,1,0,1.377-1.377A1.378,1.378,0,0,0,254.692,373.263Z" transform="translate(-254.692 -298.817)" fill="#6bb5f3"/>
        <path id="Path_118" data-name="Path 118" d="M381.566,450.892a.861.861,0,1,0,.861-.861A.861.861,0,0,0,381.566,450.892Z" transform="translate(-276.353 -312.158)" fill="#6bb5f3"/>
        <path id="Path_119" data-name="Path 119" d="M379.351,393.3a.861.861,0,1,0,.861-.861A.861.861,0,0,0,379.351,393.3Z" transform="translate(-275.975 -302.326)" fill="#a1dde9"/>
        <path id="Path_120" data-name="Path 120" d="M383.642,351.007a1.894,1.894,0,1,0,1.894-1.894A1.895,1.895,0,0,0,383.642,351.007Z" transform="translate(-276.708 -294.928)" fill="#e0627a"/>
        <path id="Path_121" data-name="Path 121" d="M319.409,384.231a1.894,1.894,0,1,0,1.895-1.894A1.895,1.895,0,0,0,319.409,384.231Z" transform="translate(-265.741 -300.601)" fill="#6bb5f3"/>
        <path id="Path_122" data-name="Path 122" d="M285.078,427.422a1.894,1.894,0,1,0,1.894-1.894A1.894,1.894,0,0,0,285.078,427.422Z" transform="translate(-259.88 -307.975)" fill="#b3d5a8"/>
        <circle id="Ellipse_25" data-name="Ellipse 25" cx="1.894" cy="1.894" r="1.894" transform="translate(84.893 114.798)" fill="#e0627a"/>
        <path id="Path_123" data-name="Path 123" d="M396.932,285.667a1.894,1.894,0,1,0,1.894-1.894A1.894,1.894,0,0,0,396.932,285.667Z" transform="translate(-278.977 -283.773)" fill="#e0627a"/>
      </g>
    </g>
    <g id="Group_31" data-name="Group 31" transform="matrix(1, 0.017, -0.017, 1, -123.815, 148.307)">
      <path id="Path_20" data-name="Path 20" d="M295,274.413s-.835-3.007-1.114-4.566.724-4.4,2.172-5.012,3.787.835,4.677,2.283,1.169,7.295,1.169,7.295Z" transform="translate(-14.953 -9.751)" fill="#ffcbb9"/>
      <path id="Path_21" data-name="Path 21" d="M260.431,404.74v5.624h22.246a4.607,4.607,0,0,0-3.78-4.532L272.9,404.74Z" transform="translate(-3.867 -56.219)" fill="#2d2b4d"/>
      <path id="Path_22" data-name="Path 22" d="M252.827,314.657l5.179,60.194h11.025l-2.673-60.194Z" transform="translate(-1.344 -26.329)" fill="#444"/>
      <path id="Path_23" data-name="Path 23" d="M276.04,315.3l10.775,58.8H274.341s-13.141-39.646-15.369-47.22a87.57,87.57,0,0,1-2.9-14.477Z" transform="translate(-2.423 -25.583)" fill="#616161"/>
      <path id="Path_24" data-name="Path 24" d="M273.827,259.33l7.851-14.116,13.476-.641v4.51a18.323,18.323,0,0,1,1.559,3.286c0,.557-1.992,1.707-1.992,1.707s-1.516,5.531-4.022,6.423-5.429-1.671-5.429-1.671l-3.341,4.343Z" transform="translate(-8.312 -3.076)" fill="#ffcbb9"/>
      <path id="Path_25" data-name="Path 25" d="M286.466,249.628s3.062-1.893,5.457-3.62a23.252,23.252,0,0,0,3.4-2.84s4.176-1.559,4.343-3.842-3.675-3.9-8.018-4.009-8.242.5-10.246,1.671a7.3,7.3,0,0,0-2.561,2.116s-4.51,1.559-4.51,5.29a11.8,11.8,0,0,0,2.513,6.741l5,.275S282.958,247.066,286.466,249.628Z" transform="translate(-8.478)" fill="#5d6e79"/>
      <path id="Path_26" data-name="Path 26" d="M273.617,270.5a38.327,38.327,0,0,1,1.2,6.9c.223,3.453-.223,14.478,0,16.594s2.283,6.905-1.2,7.684-19.628.223-21.187,0-5.235-3.452-2.9-6.459,6.794-19.824,9.021-23.61,6.961-4.955,6.961-4.955Z" transform="translate(0 -10.403)" fill="#e7e6e9"/>
      <path id="Path_27" data-name="Path 27" d="M272.244,295.74l11.164,12.814c.021-1.691-.682-3.719-.807-4.907-.065-.616-.073-1.991-.057-3.711Z" transform="translate(-7.787 -20.053)" fill="#bbb9c7"/>
      <path id="Path_28" data-name="Path 28" d="M283.41,404.74v5.624h22.246a4.607,4.607,0,0,0-3.78-4.532l-5.992-1.093Z" transform="translate(-11.492 -56.219)" fill="#2d2b4d"/>
      <path id="Path_29" data-name="Path 29" d="M275.473,277.24,288.281,288.6l-.446-10.023h6.9s1.874,17.391-1.056,20.322c-3.844,3.845-21.439-9.3-21.439-9.3Z" transform="translate(-7.787 -13.914)" fill="#e7e6e9"/>
    </g>
  </g>
</svg>
