<svg xmlns="http://www.w3.org/2000/svg" width="27" height="27.463" viewBox="0 0 27 27.463">
  <g id="balloons" transform="translate(-4.311)">
    <path id="Path_540" data-name="Path 540" d="M189.875,343.355l-2.73,4.308v-7.222h-.891v7.222l-2.73-4.308-.752.477,3.552,5.6a.445.445,0,0,0,.752,0l3.552-5.6Z" transform="translate(-168.889 -322.181)" fill="#9ad6d4"/>
    <path id="Path_541" data-name="Path 541" d="M14.361,167.435a5.446,5.446,0,0,0-9.207,5.818c1.554,2.46,5.639,3.511,8.467,3.639l.026,1.641,1.839-1.165-1.472-.724C15.112,174.035,15.915,169.895,14.361,167.435Z" transform="translate(0 -156.053)" fill="#ffaa0e"/>
    <path id="Path_542" data-name="Path 542" d="M300.475,167.435a5.446,5.446,0,1,1,9.207,5.818c-1.554,2.46-5.639,3.511-8.467,3.639l-.026,1.641-1.839-1.165,1.472-.724C299.724,174.035,298.921,169.895,300.475,167.435Z" transform="translate(-279.214 -156.053)" fill="#57bab7"/>
    <path id="Path_543" data-name="Path 543" d="M30.107,206.482a.445.445,0,0,1-.377-.207A4.114,4.114,0,0,1,31,200.6a.445.445,0,0,1,.477.752,3.223,3.223,0,0,0-1,4.442.445.445,0,0,1-.376.684Z" transform="translate(-23.452 -189.779)" fill="#fff"/>
    <path id="Path_544" data-name="Path 544" d="M136.586,7.175a7.175,7.175,0,1,0-14.35,0c0,3.829,3.8,7.868,6.856,10l-1.025,1.676h2.687l-1.025-1.676C132.788,15.043,136.586,11,136.586,7.175Z" transform="translate(-111.6)" fill="#ff3776"/>
    <path id="Path_545" data-name="Path 545" d="M147.589,31.191h0a.445.445,0,0,1-.445-.445,5.846,5.846,0,0,1,5.839-5.838.445.445,0,1,1,0,.891,4.954,4.954,0,0,0-4.948,4.947A.445.445,0,0,1,147.589,31.191Z" transform="translate(-135.172 -23.572)" fill="#fff"/>
  </g>
</svg>
