<svg id="dollar" xmlns="http://www.w3.org/2000/svg" width="27.242" height="27.242" viewBox="0 0 27.242 27.242">
  <path id="Path_546" data-name="Path 546" d="M13.674,0A13.668,13.668,0,0,0,0,13.568,13.76,13.76,0,0,0,13.674,27.242,13.621,13.621,0,0,0,13.674,0Z" fill="#fedb41"/>
  <path id="Path_547" data-name="Path 547" d="M270.568,13.568A13.668,13.668,0,0,1,257,27.242V0A13.577,13.577,0,0,1,270.568,13.568Z" transform="translate(-243.326)" fill="#fc3"/>
  <path id="Path_548" data-name="Path 548" d="M70.482,60A10.429,10.429,0,1,0,80.857,70.375,10.487,10.487,0,0,0,70.482,60Z" transform="translate(-56.808 -56.808)" fill="#fea832"/>
  <path id="Path_549" data-name="Path 549" d="M267.375,70.375A10.487,10.487,0,0,1,257,80.857V60A10.4,10.4,0,0,1,267.375,70.375Z" transform="translate(-243.326 -56.808)" fill="#fe9923"/>
</svg>
