<svg id="Group_235" data-name="Group 235" xmlns="http://www.w3.org/2000/svg" width="699.445" height="613.051" viewBox="0 0 699.445 613.051">
  <path id="Path_746" data-name="Path 746" d="M580.7,290.348A290.2,290.2,0,0,1,433.361,543.065v.018A290.936,290.936,0,0,1,183,560.193h-.035C75.755,517.506,0,412.786,0,290.348A290.552,290.552,0,0,1,385.056,15.8C498.9,55.069,580.7,163.153,580.7,290.348Zm0,0" transform="translate(0 0)" fill="#77c6cf"/>
  <path id="Path_747" data-name="Path 747" d="M351.62,574.2A291.634,291.634,0,0,1,183,560.193h-.035C75.755,517.506,0,412.786,0,290.348A290.5,290.5,0,0,1,351.585,6.495,290.513,290.513,0,0,0,122.544,290.348c0,122.438,75.759,227.158,182.965,269.845h.035A285.875,285.875,0,0,0,351.62,574.2Zm0,0" transform="translate(0 0)" fill="#3c9ba5"/>
  <path id="Path_748" data-name="Path 748" d="M551.059,288.479A290.2,290.2,0,0,1,403.722,541.2c-50.6-103.064-168.3-11.838-181.977-140.42-13.663-128.6,140.917-83.455,186.062-128.6s0-114.919-38.3-76.614-95.767,27.366-82.086-10.943,79.348-54.724,32.1-71.143c-47.263-16.4,0-63.66,35.864-99.524l.035-.018A291.209,291.209,0,0,1,525.1,168.363c-35.208,0-68.042,60.031-35.208,92.865,17.823,17.823,39.971,22.692,61.148,24.278C551.059,286.49,551.059,287.5,551.059,288.479Zm0,0" transform="translate(29.638 1.869)" fill="#fce065"/>
  <path id="Path_749" data-name="Path 749" d="M183,550.409h-.035C75.755,507.722,0,403,0,280.564A289.41,289.41,0,0,1,87.411,72.922c79.171,18.971,92.852,73.677,40.861,92.829-51.237,18.882-54.631,53.7-2.353,70.412.784.257,1.551.492,2.353.731,36.976,11.089,22.732,45.934-4.758,67.368-13.171,10.27-29.4,17.456-44.494,17.456-46.514,0-8.205,94.4,47.888,94.4S183,550.409,183,550.409Zm0,0" transform="translate(0 9.784)" fill="#fce065"/>
  <path id="Path_750" data-name="Path 750" d="M183,550.409h-.035C75.755,507.722,0,403,0,280.564A289.41,289.41,0,0,1,87.411,72.922c79.171,18.971,92.852,73.677,40.861,92.829-51.237,18.882-54.631,53.7-2.353,70.412a292.262,292.262,0,0,0-3.376,44.4q0,11.955.966,23.7c-13.167,10.27-29.4,17.456-44.49,17.456-46.514,0-8.209,94.4,47.883,94.4S183,550.409,183,550.409Zm0,0" transform="translate(0 9.784)" fill="#f9a53f"/>
  <ellipse id="Ellipse_137" data-name="Ellipse 137" cx="193.601" cy="193.601" rx="193.601" ry="193.601" transform="translate(312.244 225.85)" fill="#e4e4e4"/>
  <rect id="Rectangle_133" data-name="Rectangle 133" width="100.144" height="56.221" transform="translate(636.2 446.77) rotate(135)" fill="#f2a077"/>
  <path id="Path_697" data-name="Path 697" d="M356.691,237.2l-70.815,70.815,15.805,15.805c.694-.575,1.37-1.183,2.02-1.833l68.89-68.889Z" transform="translate(239.757 169.814)" fill="#d6774d"/>
  <path id="Path_698" data-name="Path 698" d="M295.353,144.889h0a16.271,16.271,0,0,0-23.009,0l4.4-4.4a16.27,16.27,0,0,0,0-23.01h0a16.271,16.271,0,0,0-23.01,0l5.978-5.978a16.27,16.27,0,1,0-23.01-23.01l4.218-4.217a16.27,16.27,0,0,0,0-23.01h0a16.271,16.271,0,0,0-23.01,0L203.314,75.859h0l-7.367,7.367-29.3-7.139a29.528,29.528,0,0,0-30.7,11.091L99.719,135.987a31.071,31.071,0,0,0,2.98,40.489L61.127,218.047l70.815,70.815L176.705,244.1l.927.927a28.7,28.7,0,0,0,40.592,0L295.353,167.9A16.27,16.27,0,0,0,295.353,144.889Z" transform="translate(315.727 230.896)" fill="#d7875f"/>
  <path id="Path_699" data-name="Path 699" d="M295.352,187.88h0a16.171,16.171,0,0,0-7.284-4.2,16.643,16.643,0,0,1-4.774,15.147l-77.128,77.128c-11.209,11.209-28.472,12.12-38.558,2.034h0a1.18,1.18,0,0,0-1.669,0l-43.928,43.929L61.126,261.038h0l70.815,70.815L176.7,287.09l.927.927a28.7,28.7,0,0,0,40.592,0l77.129-77.129A16.269,16.269,0,0,0,295.352,187.88Z" transform="translate(315.727 187.905)" fill="#b05a3d"/>
  <path id="Path_700" data-name="Path 700" d="M89.743,155.908h0a15.57,15.57,0,0,0,0,22.02l8.058,8.058a15.571,15.571,0,0,0,22.021,0h0a15.571,15.571,0,0,0,0-22.021l-8.058-8.058A15.571,15.571,0,0,0,89.743,155.908Z" transform="translate(307.596 198.836)" fill="#fca"/>
  <path id="Path_701" data-name="Path 701" d="M181.345,47.923h0a15.57,15.57,0,0,0,0,22.02l12.938,12.938a15.571,15.571,0,0,0,22.021,0h0a15.571,15.571,0,0,0,0-22.021L203.367,47.923A15.572,15.572,0,0,0,181.345,47.923Z" transform="translate(276.633 235.337)" fill="#f2a077"/>
  <path id="Path_702" data-name="Path 702" d="M143.53,76.637h0a15.57,15.57,0,0,0,0,22.02l25.711,25.711a15.571,15.571,0,0,0,22.021,0h0a15.571,15.571,0,0,0,0-22.021L165.551,76.637A15.572,15.572,0,0,0,143.53,76.637Z" transform="translate(289.415 225.631)" fill="#f7aa86"/>
  <path id="Path_703" data-name="Path 703" d="M117.547,117.182h0a15.57,15.57,0,0,0,0,22.02l15.514,15.514a15.571,15.571,0,0,0,22.021,0h0a15.571,15.571,0,0,0,0-22.021l-15.513-15.513A15.572,15.572,0,0,0,117.547,117.182Z" transform="translate(298.198 211.926)" fill="#f2a077"/>
  <path id="Path_704" data-name="Path 704" d="M264.331,58.8l-4.417-8.393a11.6,11.6,0,0,0-11.869-6.088l-39.518,5.508a5.88,5.88,0,0,0-5,6.744l.884,5.584A22.988,22.988,0,0,0,231.075,81.2l13.148-2.3Z" transform="translate(267.617 235.051)" fill="#fca"/>
  <path id="Path_705" data-name="Path 705" d="M26.4,288.549,0,314.946l91.495,91.495,26.4-26.4a13.367,13.367,0,0,0,0-18.9L45.3,288.549A13.367,13.367,0,0,0,26.4,288.549Z" transform="translate(336.39 153.782)" fill="#2bb4f3"/>
  <path id="Path_706" data-name="Path 706" d="M158.382,394.622l-10.938-10.938c4.524,4.524,3.96,12.423-1.26,17.642l-26.4,26.4,12.2,12.2,26.4-26.4A13.366,13.366,0,0,0,158.382,394.622Z" transform="translate(295.899 120.301)" fill="#1687c4"/>
  <path id="Path_707" data-name="Path 707" d="M331.912,374.735l26.4,26.4L449.8,309.637l-26.4-26.4a13.367,13.367,0,0,0-18.9,0l-72.592,72.591A13.367,13.367,0,0,0,331.912,374.735Z" transform="translate(225.52 155.576)" fill="#75dc5e"/>
  <path id="Path_708" data-name="Path 708" d="M342.7,378.6l-10.789,10.789a13.367,13.367,0,0,0,0,18.9l26.4,26.4,12.031-12.032-26.4-26.4C338.724,391.04,338.167,383.134,342.7,378.6Z" transform="translate(225.52 122.02)" fill="#2aad52"/>
</svg>
