<svg xmlns="http://www.w3.org/2000/svg" width="11.608" height="14.844" viewBox="0 0 11.608 14.844">
  <g id="Group_163" data-name="Group 163" transform="translate(-1347.67 -334.746)">
    <path id="Path_508" data-name="Path 508" d="M1359.276,343.236a2.03,2.03,0,0,1-1.058,1.847c-1.227.717-2.461,1.42-3.695,2.123a2,2,0,0,1-2.09.007q-1.851-1.049-3.691-2.121l0,0a2.039,2.039,0,0,1-1.069-1.88c0-1.395,0-2.79,0-4.183a2.017,2.017,0,0,1,1.055-1.847c1.239-.724,2.484-1.435,3.73-2.146a1.907,1.907,0,0,1,2.008,0q1.378.789,2.754,1.583.489.28.976.563a2.049,2.049,0,0,1,1.082,1.875c0,.7,0,1.407,0,2.112S1359.28,342.546,1359.276,343.236Z" fill="#fff" fill-rule="evenodd"/>
    <g id="Group_161" data-name="Group 161" transform="translate(1350.196 344.011)">
      <path id="Path_509" data-name="Path 509" d="M1375.569,414.223v4.431a.807.807,0,0,1-1.172.72l-.8-.405-1.132-.574a.116.116,0,0,0-.039-.012.129.129,0,0,0-.077.012l-1.149.584-.781.4a.807.807,0,0,1-1.173-.72v-4.431a.34.34,0,0,1,.34-.34h5.642A.339.339,0,0,1,1375.569,414.223Z" transform="translate(-1369.248 -413.883)" fill="#ff873c"/>
      <path id="Path_510" data-name="Path 510" d="M1399.549,414.223v4.431a.807.807,0,0,1-1.172.72l-.8-.405-1.132-.574a.118.118,0,0,0-.039-.012v-4.5h2.8A.339.339,0,0,1,1399.549,414.223Z" transform="translate(-1393.228 -413.883)" fill="#fa732d"/>
      <path id="Path_511" data-name="Path 511" d="M1388.327,413.883v5.085l-1.132-.574a.115.115,0,0,0-.039-.012.128.128,0,0,0-.077.012l-1.149.584v-5.094Z" transform="translate(-1383.977 -413.883)" fill="#ff2121"/>
      <path id="Path_512" data-name="Path 512" d="M1397.578,413.883v5.085l-1.132-.574a.115.115,0,0,0-.039-.012v-4.5Z" transform="translate(-1393.228 -413.883)" fill="#cf0404"/>
    </g>
    <path id="Path_513" data-name="Path 513" d="M1364.249,349.426a1.757,1.757,0,0,1-.915,1.6c-1.062.62-2.13,1.229-3.2,1.837a1.731,1.731,0,0,1-1.809.006q-1.6-.908-3.194-1.836l0,0a1.765,1.765,0,0,1-.925-1.627c0-1.207,0-2.414,0-3.62a1.746,1.746,0,0,1,.913-1.6c1.072-.626,2.149-1.242,3.228-1.857a1.65,1.65,0,0,1,1.737,0q1.192.683,2.383,1.37.423.242.844.487a1.774,1.774,0,0,1,.937,1.623c0,.609,0,1.218,0,1.828S1364.252,348.829,1364.249,349.426Z" transform="translate(-5.77 -6.475)" fill="#ffc44d" fill-rule="evenodd"/>
    <path id="Path_514" data-name="Path 514" d="M1373.439,360.561a1.264,1.264,0,0,1-.659,1.151c-.764.447-1.534.885-2.3,1.323a1.251,1.251,0,0,1-1.3,0q-1.154-.655-2.3-1.323h0a1.206,1.206,0,0,1-.11-.071,1.261,1.261,0,0,1-.556-1.1c0-.869,0-1.739,0-2.607a1.256,1.256,0,0,1,.658-1.151q1.157-.676,2.324-1.337a1.188,1.188,0,0,1,1.252,0l1.6.918c.039.023.078.046.117.068l.608.351a1.277,1.277,0,0,1,.674,1.169c0,.439,0,.877,0,1.317S1373.442,360.13,1373.439,360.561Z" transform="translate(-16.365 -18.12)" fill="#ff9d3b" fill-rule="evenodd"/>
    <path id="Path_515" data-name="Path 515" d="M1371.25,361.621a1.757,1.757,0,0,1-.916,1.6c-1.062.62-2.13,1.229-3.2,1.837a1.731,1.731,0,0,1-1.809.006q-1.6-.908-3.194-1.836l7.335-7.335q.423.242.844.487a1.774,1.774,0,0,1,.937,1.623c0,.609,0,1.218,0,1.828S1371.254,361.024,1371.25,361.621Z" transform="translate(-12.771 -18.669)" fill="#ff9d3b" fill-rule="evenodd"/>
    <path id="Path_516" data-name="Path 516" d="M1377.633,368.827a1.263,1.263,0,0,1-.659,1.151c-.764.447-1.534.885-2.3,1.323a1.251,1.251,0,0,1-1.3,0q-1.154-.655-2.3-1.323h0a1.188,1.188,0,0,1-.11-.071l5.279-5.279.117.068.608.351a1.276,1.276,0,0,1,.674,1.168c0,.439,0,.877,0,1.317S1377.636,368.4,1377.633,368.827Z" transform="translate(-20.559 -26.386)" fill="#f47e14" fill-rule="evenodd"/>
    <g id="Group_162" data-name="Group 162" transform="translate(1350.221 339.595)">
      <path id="Path_517" data-name="Path 517" d="M1371,381.038a.829.829,0,0,1-.522.284h-.034a.546.546,0,0,1-.14-.018.911.911,0,0,1-.38-.2.125.125,0,0,1-.01-.172.832.832,0,0,1,.523-.284h.02c-.016-.026-.032-.053-.046-.08a.8.8,0,0,1-.347.089.571.571,0,0,1-.1-.008.844.844,0,0,1-.488-.343.126.126,0,0,1,.031-.17.828.828,0,0,1,.575-.155.586.586,0,0,1,.164.054,1.276,1.276,0,0,1-.009-.149h-.035a.719.719,0,0,1-.4-.108.841.841,0,0,1-.309-.509.127.127,0,0,1,.095-.144.837.837,0,0,1,.59.089.627.627,0,0,1,.145.138,1.424,1.424,0,0,1,.069-.163.709.709,0,0,1-.352-.2.832.832,0,0,1-.169-.57.125.125,0,0,1,.129-.115.7.7,0,0,1,.717.807.131.131,0,0,1-.021.059,1.256,1.256,0,0,0,.162,1.586c.021.021.043.041.067.061.039.029.062.05.064.053A.124.124,0,0,1,1371,381.038Z" transform="translate(-1369.459 -378.05)" fill="#ffe388"/>
      <path id="Path_518" data-name="Path 518" d="M1413.33,380.3a.838.838,0,0,1-.487.342.486.486,0,0,1-.1.009.8.8,0,0,1-.348-.089c-.014.027-.029.054-.046.08h.021a.829.829,0,0,1,.522.284.125.125,0,0,1-.009.172.855.855,0,0,1-.52.22h-.034a.832.832,0,0,1-.523-.284.126.126,0,0,1,.01-.172s.026-.023.064-.053a1.252,1.252,0,0,0,.228-1.647.129.129,0,0,1-.02-.059.7.7,0,0,1,.715-.807.126.126,0,0,1,.129.115.832.832,0,0,1-.169.57.718.718,0,0,1-.352.2,1.41,1.41,0,0,1,.07.163.585.585,0,0,1,.145-.138.835.835,0,0,1,.589-.089.125.125,0,0,1,.095.143.835.835,0,0,1-.308.51.722.722,0,0,1-.4.108h-.034c0,.05,0,.1-.009.149a.56.56,0,0,1,.164-.054.834.834,0,0,1,.575.155A.126.126,0,0,1,1413.33,380.3Z" transform="translate(-1406.824 -378.05)" fill="#ffe388"/>
      <path id="Path_519" data-name="Path 519" d="M1386.129,377.671l-.5.651.022.821a.3.3,0,0,1-.123.252.3.3,0,0,1-.177.057.3.3,0,0,1-.1-.018l-.774-.276-.773.276a.3.3,0,0,1-.4-.292l.023-.821-.077-.1-.424-.55a.3.3,0,0,1,.153-.471l.788-.232.464-.678a.3.3,0,0,1,.5,0l.185.269.279.409.788.232a.3.3,0,0,1,.154.471Z" transform="translate(-1381.204 -376.161)" fill="#ffe388"/>
    </g>
    <path id="Path_520" data-name="Path 520" d="M1377.389,399.355a.124.124,0,0,1,.011.172.829.829,0,0,1-.522.284h-.034a.548.548,0,0,1-.14-.018l.554-.554c.021.021.043.041.067.061C1377.363,399.331,1377.387,399.352,1377.389,399.355Z" transform="translate(-25.635 -56.944)" fill="#ffc44d" fill-rule="evenodd"/>
    <path id="Path_521" data-name="Path 521" d="M1389.8,380.682l-.5.651.022.821a.3.3,0,0,1-.123.252.3.3,0,0,1-.177.057.3.3,0,0,1-.1-.018l-.774-.276-.773.276a.3.3,0,0,1-.4-.292l.023-.821-.077-.1,1.661-1.661.279.409.788.232a.3.3,0,0,1,.153.471Z" transform="translate(-34.649 -39.577)" fill="#ffc44d" fill-rule="evenodd"/>
    <path id="Path_522" data-name="Path 522" d="M1413.33,380.3a.838.838,0,0,1-.487.342.486.486,0,0,1-.1.009.8.8,0,0,1-.348-.089c-.014.027-.029.054-.046.08h.021a.829.829,0,0,1,.522.284.125.125,0,0,1-.009.172.855.855,0,0,1-.52.22h-.034a.832.832,0,0,1-.523-.284.126.126,0,0,1,.01-.172s.026-.023.064-.053a1.252,1.252,0,0,0,.228-1.647.129.129,0,0,1-.02-.059.7.7,0,0,1,.715-.807.126.126,0,0,1,.129.115.832.832,0,0,1-.169.57.718.718,0,0,1-.352.2,1.41,1.41,0,0,1,.07.163.585.585,0,0,1,.145-.138.835.835,0,0,1,.589-.089.125.125,0,0,1,.095.143.835.835,0,0,1-.308.51.722.722,0,0,1-.4.108h-.034c0,.05,0,.1-.009.149a.56.56,0,0,1,.164-.054.834.834,0,0,1,.575.155A.126.126,0,0,1,1413.33,380.3Z" transform="translate(-56.603 -38.455)" fill="#ffc44d" fill-rule="evenodd"/>
  </g>
</svg>
