<svg xmlns="http://www.w3.org/2000/svg" width="54.708" height="54.708" viewBox="0 0 54.708 54.708">
  <g id="Group_227" data-name="Group 227" transform="translate(-227.333 -54.447)">
    <path id="Path_632" data-name="Path 632" d="M244.59,106.291A14.409,14.409,0,0,1,230.2,91.9V71.7A14.409,14.409,0,0,1,244.59,57.311h10.1V54.447h-10.1A17.257,17.257,0,0,0,227.333,71.7V91.9a17.257,17.257,0,0,0,17.257,17.257h10.1v-2.864Z" transform="translate(0)" fill="#fff"/>
    <path id="Path_633" data-name="Path 633" d="M428.431,54.447h-10.1v2.864h10.1A14.409,14.409,0,0,1,442.823,71.7V91.9a14.409,14.409,0,0,1-14.392,14.392h-10.1v2.864h10.1A17.257,17.257,0,0,0,445.687,91.9V71.7A17.257,17.257,0,0,0,428.431,54.447Z" transform="translate(-163.646)" fill="#f5ba4b"/>
    <path id="Path_634" data-name="Path 634" d="M339.736,169.761h23.828v-5.373h-17.5v-8.68H361.79v-5.373H346.062v-7.07h16.9v-5.4h-23.23Z" transform="translate(-96.305 -71.475)" fill="#f5ba4b"/>
  </g>
</svg>
