<svg id="PLATINUM" xmlns="http://www.w3.org/2000/svg" width="760.09" height="948.389" viewBox="0 0 760.09 948.389">
  <path id="Path_691" data-name="Path 691" d="M416.257,0H701.722L464.408,302.873H178.943Z" transform="translate(58.367 0)" fill="#0e6a8e"/>
  <path id="Path_694" data-name="Path 694" d="M416.257,0H536.9L299.587,302.873H178.943Z" transform="translate(58.367 0)" fill="#e52e40"/>
  <path id="Path_692" data-name="Path 692" d="M466.07,0H567L329.682,302.873H228.756Z" transform="translate(100.824 0)" fill="#eaeae4"/>
  <circle id="Ellipse_136" data-name="Ellipse 136" cx="295.666" cy="295.666" r="295.666" transform="translate(84.379 357.057)" fill="#afafaf"/>
  <path id="Path_693" data-name="Path 693" d="M201.209,276.646V185.775H486.675v90.871l48.386,33.386V161.58a24.189,24.189,0,0,0-24.193-24.193H177.016a24.2,24.2,0,0,0-24.193,24.193V310.051Z" transform="translate(36.105 117.098)" fill="#afafaf"/>
  <ellipse id="Ellipse_137" data-name="Ellipse 137" cx="221.343" cy="221.343" rx="221.343" ry="221.343" transform="translate(158.701 431.38)" fill="#e4e4e4"/>
  <path id="Path_695" data-name="Path 695" d="M336.293,0H50.828L288.142,302.873H573.607Z" transform="translate(-50.828 0)" fill="#e52e40"/>
  <path id="Path_696" data-name="Path 696" d="M260.453,0H139.808L377.124,302.873H497.767Z" transform="translate(25.012 0)" fill="#0e6a8e"/>
  <path id="Path_709" data-name="Path 709" d="M201.567,0H100.641L337.955,302.873H438.881Z" transform="translate(-8.371 0)" fill="#eaeae4"/>
  <rect id="Rectangle_133" data-name="Rectangle 133" width="114.494" height="64.278" transform="translate(529.08 683.957) rotate(135)" fill="#f2a077"/>
  <path id="Path_697" data-name="Path 697" d="M366.839,237.2l-80.963,80.963,18.07,18.07c.793-.657,1.566-1.352,2.309-2.1l78.761-78.761Z" transform="translate(116.794 401.305)" fill="#d6774d"/>
  <path id="Path_698" data-name="Path 698" d="M328.917,157.555h0a18.6,18.6,0,0,0-26.306,0l5.029-5.029a18.6,18.6,0,0,0,0-26.307h0a18.6,18.6,0,0,0-26.307,0l6.834-6.834A18.6,18.6,0,0,0,261.86,93.076l4.822-4.822a18.6,18.6,0,0,0,0-26.307h0a18.6,18.6,0,0,0-26.307,0L223.689,78.634h0l-8.423,8.423-33.5-8.163a33.759,33.759,0,0,0-35.1,12.68l-41.417,55.8a35.523,35.523,0,0,0,3.407,46.291L61.127,241.2,142.09,322.16l51.178-51.177,1.06,1.06a32.816,32.816,0,0,0,46.409,0l88.181-88.181A18.6,18.6,0,0,0,328.917,157.555Z" transform="translate(171.444 445.246)" fill="#d7875f"/>
  <path id="Path_699" data-name="Path 699" d="M328.916,188.481h0a18.489,18.489,0,0,0-8.328-4.8A19.027,19.027,0,0,1,315.13,201l-88.18,88.18C214.134,302,194.4,303.039,182.867,291.508h0a1.349,1.349,0,0,0-1.908,0l-50.223,50.224-69.61-69.61h0l80.963,80.963,51.178-51.177,1.06,1.06a32.815,32.815,0,0,0,46.409,0l88.181-88.181A18.6,18.6,0,0,0,328.916,188.481Z" transform="translate(171.444 414.32)" fill="#b05a3d"/>
  <path id="Path_700" data-name="Path 700" d="M90.4,156.562h0a17.8,17.8,0,0,0,0,25.176l9.213,9.213a17.8,17.8,0,0,0,25.176,0h0a17.8,17.8,0,0,0,0-25.176l-9.213-9.213A17.8,17.8,0,0,0,90.4,156.562Z" transform="translate(165.594 422.182)" fill="#fca"/>
  <path id="Path_701" data-name="Path 701" d="M182,48.577h0a17.8,17.8,0,0,0,0,25.176l14.792,14.792a17.8,17.8,0,0,0,25.176,0h0a17.8,17.8,0,0,0,0-25.176L207.176,48.577A17.8,17.8,0,0,0,182,48.577Z" transform="translate(143.32 448.44)" fill="#f2a077"/>
  <path id="Path_702" data-name="Path 702" d="M144.184,77.291h0a17.8,17.8,0,0,0,0,25.176l29.395,29.395a17.8,17.8,0,0,0,25.176,0h0a17.8,17.8,0,0,0,0-25.176L169.36,77.29A17.8,17.8,0,0,0,144.184,77.291Z" transform="translate(152.516 441.458)" fill="#f7aa86"/>
  <path id="Path_703" data-name="Path 703" d="M118.2,117.836h0a17.8,17.8,0,0,0,0,25.175l17.737,17.737a17.8,17.8,0,0,0,25.176,0h0a17.8,17.8,0,0,0,0-25.176l-17.737-17.737A17.8,17.8,0,0,0,118.2,117.836Z" transform="translate(158.834 431.599)" fill="#f2a077"/>
  <path id="Path_704" data-name="Path 704" d="M273.054,60.889l-5.05-9.6a13.267,13.267,0,0,0-13.569-6.96l-45.181,6.3a6.722,6.722,0,0,0-5.712,7.71l1.011,6.384A26.282,26.282,0,0,0,235.032,86.5l15.032-2.625Z" transform="translate(136.835 448.235)" fill="#fca"/>
  <path id="Path_705" data-name="Path 705" d="M30.179,289.11,0,319.29,104.606,423.9l30.179-30.179a15.282,15.282,0,0,0,0-21.612l-82.994-83A15.282,15.282,0,0,0,30.179,289.11Z" transform="translate(186.307 389.772)" fill="#2bb4f3"/>
  <path id="Path_706" data-name="Path 706" d="M163.913,396.189l-12.505-12.505c5.172,5.172,4.527,14.2-1.44,20.171l-30.179,30.179,13.946,13.946,30.179-30.18A15.281,15.281,0,0,0,163.913,396.189Z" transform="translate(157.18 365.688)" fill="#1687c4"/>
  <path id="Path_707" data-name="Path 707" d="M332.473,388.407l30.179,30.179L467.258,313.981,437.079,283.8a15.282,15.282,0,0,0-21.612,0L332.473,366.8A15.282,15.282,0,0,0,332.473,388.407Z" transform="translate(106.552 391.063)" fill="#75dc5e"/>
  <path id="Path_708" data-name="Path 708" d="M344.808,378.6l-12.335,12.335a15.282,15.282,0,0,0,0,21.612l30.179,30.179,13.756-13.756L346.228,398.79C340.261,392.822,339.624,383.783,344.808,378.6Z" transform="translate(106.552 366.924)" fill="#2aad52"/>
</svg>
