<svg xmlns="http://www.w3.org/2000/svg" xmlns:xlink="http://www.w3.org/1999/xlink" width="578.115" height="578.115" viewBox="0 0 578.115 578.115">
  <defs>
    <clipPath id="clip-path">
      <ellipse id="Ellipse_132" data-name="Ellipse 132" cx="289.058" cy="289.058" rx="289.058" ry="289.058"/>
    </clipPath>
  </defs>
  <g id="Group_232" data-name="Group 232" clip-path="url(#clip-path)">
    <g id="Group_231" data-name="Group 231" transform="translate(119.57 33.596)">
      <path id="Path_652" data-name="Path 652" d="M374.692,362.932v.034H39.541v-.034a166.73,166.73,0,0,1,8.941-54.116q1.562-4.6,3.411-9.1v-.031c1.2-3,2.526-5.939,3.918-8.846A165.58,165.58,0,0,1,76.219,258.3c2.022-2.5,4.074-4.929,6.191-7.264,1.042-1.2,2.148-2.369,3.254-3.54,1.106-1.137,2.212-2.274,3.349-3.411a166.726,166.726,0,0,1,18.1-15.606c3.193-2.369,6.413-4.578,9.762-6.726,1.42-.916,2.873-1.8,4.326-2.652.851-.507,1.675-1.011,2.526-1.518.381-.19.728-.378,1.106-.6.759-.442,1.515-.851,2.274-1.263a.2.2,0,0,1,.126-.061c1.358-.725,2.682-1.515,4.013-2.338a99.627,99.627,0,0,0,11.341-7.9,105.491,105.491,0,0,0,14.564-14.057,103.177,103.177,0,0,0,10.616-14.847,101.768,101.768,0,0,0,11.6-28.118c.633-2.369,1.137-4.772,1.579-7.205a107.4,107.4,0,0,0,1.641-18.7l24.422.126h.126l4.265.031,20.722.1a106.76,106.76,0,0,0,1.579,18.356c.412,2.464.949,4.9,1.579,7.3a98.421,98.421,0,0,0,2.876,9.728,106.658,106.658,0,0,0,33.676,47.322c1.2.98,2.4,1.93,3.635,2.811,1.1.823,2.24,1.61,3.38,2.369.252.191.473.347.725.5,1.137.759,2.274,1.518,3.475,2.212,1.294.793,2.624,1.582,3.948,2.308a1.572,1.572,0,0,1,.568.286c2.781,1.549,5.528,3.159,8.213,4.833,1.3.79,2.59,1.61,3.856,2.526,2.621,1.675,5.18,3.506,7.676,5.4a.033.033,0,0,0,.034.034h.031c3.192,2.369,6.287,4.895,9.319,7.488s5.939,5.31,8.751,8.121A166.7,166.7,0,0,1,374.692,362.932Z" transform="translate(-37.614 220.303)" fill="#ecc19c"/>
      <path id="Path_653" data-name="Path 653" d="M374.692,307.039H39.541a166.73,166.73,0,0,1,8.941-54.116q1.562-4.6,3.411-9.1v-.031c1.2-3,2.526-5.939,3.918-8.846a165.58,165.58,0,0,1,20.409-32.54c2.022-2.5,4.074-4.929,6.191-7.264,1.042-1.2,2.148-2.369,3.254-3.54,1.106-1.137,2.212-2.274,3.349-3.411a166.729,166.729,0,0,1,18.1-15.606c3.193-2.369,6.413-4.578,9.762-6.726,1.42-.916,2.873-1.8,4.326-2.652.851-.507,1.675-1.011,2.526-1.518.381-.19.728-.378,1.106-.6.759-.442,1.515-.885,2.274-1.294a.111.111,0,0,1,.126-.034v-.031c1.358-.759,2.682-1.518,4.013-2.308a97.965,97.965,0,0,0,11.277-7.961l.065.064A90.055,90.055,0,0,0,207,176.733h.252c1.392,0,2.781-.034,4.139-.126a90.048,90.048,0,0,0,60.433-27.046l.031-.031a85.613,85.613,0,0,0,6.981,5.211c.252.191.473.347.725.5,1.137.759,2.3,1.484,3.475,2.212,1.294.793,2.624,1.549,3.948,2.277a3.381,3.381,0,0,1,.568.283c2.781,1.549,5.528,3.159,8.213,4.867,1.3.79,2.59,1.61,3.856,2.526,2.621,1.675,5.18,3.506,7.675,5.4h.065c3.192,2.4,6.317,4.9,9.319,7.519,3.033,2.59,5.939,5.31,8.751,8.121A166.688,166.688,0,0,1,374.692,307.039Z" transform="translate(-37.614 276.196)" fill="#5ab7b2"/>
      <path id="Path_654" data-name="Path 654" d="M181.953,145.24v19.241a14,14,0,0,1-2.59,8.149,14.183,14.183,0,0,1-11.719,6.161H90.968a14.383,14.383,0,0,1-14.312-14.309V145.24a14.331,14.331,0,0,1,14.312-14.312h76.672a13.86,13.86,0,0,1,7.676,2.274A14.227,14.227,0,0,1,181.953,145.24Z" transform="translate(39.312 237.771)" fill="#5ab7b2"/>
      <path id="Path_655" data-name="Path 655" d="M220.379,171.823v41.954H66.119V182.66c.851-.507,1.675-1.011,2.526-1.518.381-.191.728-.378,1.106-.6.759-.442,1.515-.851,2.274-1.263a.2.2,0,0,1,.126-.061c1.358-.725,2.682-1.515,4.013-2.338a99.634,99.634,0,0,0,11.341-7.9,105.49,105.49,0,0,0,14.564-14.057,103.176,103.176,0,0,0,10.616-14.847h78.977a101.95,101.95,0,0,0,9.541,13.584,103.435,103.435,0,0,0,15.545,15.351C217.946,169.995,219.144,170.941,220.379,171.823Z" transform="translate(17.473 256.74)" fill="#5ab7b2"/>
      <path id="Path_656" data-name="Path 656" d="M377.921,192.774c0,69.31-36.171,129.586-89.405,160.23A160.116,160.116,0,0,1,235,372.337a153.494,153.494,0,0,1-22.3,2.179c-1.423.034-2.842.061-4.265.061H208.4a159.107,159.107,0,0,1-80.052-21.546c-53.231-30.61-89.436-90.92-89.436-160.261,0-97.9,72.091-177.732,162.442-181.65a1.329,1.329,0,0,1,.347-.031c.885-.031,1.77-.065,2.655-.1,1.327-.031,2.621-.061,3.948-.061h.126c1.358,0,2.716.031,4.074.061h.286c.946.031,1.9.065,2.842.126h.1c.442.031.885.065,1.327.1.538.031,1.075.065,1.61.1C307.5,17.03,377.921,96.041,377.921,192.774Z" transform="translate(-38.914 -10.934)" fill="#141720"/>
      <path id="Path_657" data-name="Path 657" d="M309.464,139.54v96.07c0,1.392-.031,2.781-.061,4.17-.031,1.137-.064,2.243-.129,3.38q-.046,1.516-.191,3.033c-.031.725-.1,1.453-.157,2.182-.031.442-.061.854-.126,1.294-.065.79-.129,1.61-.255,2.4-.126,1.518-.316,3-.538,4.52-.031.378-.1.759-.157,1.137-.1.759-.221,1.515-.347,2.274v.1c-.19,1.106-.378,2.178-.568,3.285-.283,1.515-.568,3.033-.885,4.517-.031.065-.031.126-.064.19a4.591,4.591,0,0,1-.126.664c-.031.065-.031.126-.061.19-.157.82-.347,1.61-.538,2.4a6.417,6.417,0,0,1-.252,1.042c-.1.568-.252,1.137-.381,1.705-.1.316-.157.664-.283.977-.065.286-.16.572-.221.823-.664,2.59-1.42,5.116-2.212,7.645-.378,1.2-.759,2.369-1.168,3.57-.031.126-.1.252-.126.381q-.571,1.609-1.137,3.22c-.126.316-.252.63-.381.98-.378,1.011-.759,2.022-1.168,3.033-.473,1.232-.98,2.434-1.484,3.635-.442,1.075-.916,2.148-1.389,3.223-.064.19-.157.347-.221.538-.538,1.137-1.042,2.274-1.579,3.38q-.807,1.751-1.705,3.506c-1.137,2.308-2.369,4.612-3.6,6.855l-1.708,3.033a185.694,185.694,0,0,1-16.141,23.5c-.79,1.045-1.61,2.053-2.464,3.033-1.171,1.423-2.369,2.811-3.57,4.167-1.011,1.14-2.053,2.308-3.128,3.414a.564.564,0,0,1-.126.157q-4.549,4.886-9.286,9.258c-.633.63-1.294,1.2-1.96,1.8-1.075.977-2.148,1.927-3.254,2.845-.854.756-1.739,1.484-2.621,2.209-2.274,1.865-4.551,3.666-6.855,5.34-.949.725-1.927,1.423-2.907,2.086-1.579,1.137-3.189,2.212-4.8,3.254-.885.6-1.8,1.171-2.716,1.708a3.242,3.242,0,0,1-.442.252c-3.063,1.893-6.191,3.632-9.255,5.15-.79.412-1.579.79-2.369,1.168s-1.61.759-2.464,1.137c-1.042.473-2.083.919-3.128,1.327a9.063,9.063,0,0,1-1.232.473c-1.232.507-2.495.98-3.727,1.392-1.549.568-3.128,1.042-4.674,1.484-1.075.316-2.182.6-3.254.851a.47.47,0,0,1-.221.064c-1.075.252-2.148.5-3.22.694a7.717,7.717,0,0,1-.854.16c-.885.16-1.77.313-2.655.412-1.263.19-2.526.347-3.789.412a8.773,8.773,0,0,1-1.3.092c-1.011.061-1.988.1-2.968.1h-.126c-.98,0-1.96-.034-2.937-.1a7.128,7.128,0,0,1-1.14-.092c-.885-.034-1.8-.126-2.75-.252a3.972,3.972,0,0,1-.6-.065c-1.171-.16-2.338-.347-3.54-.572-1.011-.16-2.022-.378-3.063-.63a90.848,90.848,0,0,1-16.586-5.592,120.9,120.9,0,0,1-14.5-7.645c-.286-.157-.538-.347-.823-.5-2.148-1.327-4.329-2.75-6.446-4.234-1.2-.851-2.4-1.708-3.6-2.59q-5.641-4.125-11.151-8.972c-1.011-.919-2.022-1.834-3.033-2.781-1.011-.916-2.022-1.862-3-2.778-2.338-2.243-4.612-4.548-6.791-6.981a5.146,5.146,0,0,1-.409-.412q-1.373-1.466-2.75-3.033c-2.529-2.842-4.993-5.78-7.328-8.843-.916-1.106-1.77-2.243-2.624-3.383q-4.789-6.351-9.067-13.237c-.759-1.232-1.518-2.5-2.243-3.727-.885-1.484-1.736-3-2.59-4.517A172.505,172.505,0,0,1,65.172,298.2c-.378-.885-.759-1.77-1.075-2.655-.507-1.137-.949-2.3-1.358-3.444q-.949-2.512-1.8-5.024c-.568-1.675-1.1-3.38-1.641-5.085-.507-1.644-.98-3.285-1.423-4.959-.507-1.77-.98-3.57-1.389-5.4-.031-.19-.1-.378-.129-.568q-.9-3.789-1.61-7.676c-.63-3.414-1.137-6.889-1.515-10.395-.16-1.106-.255-2.212-.347-3.318-.126-1.168-.221-2.308-.283-3.475-.16-2.117-.255-4.265-.316-6.413-.031-1.392-.065-2.781-.065-4.17V139.54A128.624,128.624,0,0,1,173.782,11.121a1.329,1.329,0,0,1,.347-.031c.885-.031,1.77-.065,2.655-.1,1.327-.031,2.621-.061,3.948-.061h.126c1.358,0,2.716.031,4.074.061h.286c.946.031,1.9.065,2.842.126h.1c.442.031.885.065,1.327.1.949.065,1.9.126,2.811.221.473.031.916.065,1.392.126.316.031.6.065.916.1a131.675,131.675,0,0,1,14.755,2.434,128.963,128.963,0,0,1,72.721,46.124A127.787,127.787,0,0,1,309.437,138.4C309.464,138.784,309.464,139.162,309.464,139.54Z" transform="translate(-11.339 -10.934)" fill="#ecc19c"/>
      <path id="Path_658" data-name="Path 658" d="M357.478,187.148H42.893c0-94.678,66.628-171.888,150.216-176.027a1.329,1.329,0,0,1,.347-.031c.885-.031,1.77-.065,2.655-.1,1.327-.031,2.621-.061,3.948-.061h.126c1.358,0,2.716.031,4.074.061h.286c.946.031,1.9.065,2.842.126h.1c.442.031.885.065,1.327.1.538.031,1.075.065,1.61.1.381.031.79.065,1.2.129.473.031.916.065,1.392.126.316.031.6.065.916.1C294.357,19.433,357.478,95.03,357.478,187.148Z" transform="translate(-30.667 -10.934)" fill="#141720"/>
    </g>
  </g>
</svg>
