<svg xmlns="http://www.w3.org/2000/svg" width="21.357" height="17.677" viewBox="0 0 21.357 17.677">
  <g id="send" transform="translate(0 -45.117)">
    <path id="Path_38" data-name="Path 38" d="M21.191,45.181a.34.34,0,0,0-.331-.037L2.209,52.67,0,53.587l6.676,2.7h.007v0l1.786,6.234a.368.368,0,0,0,.615.158l3.719-3.8,5.019,1.974a.727.727,0,0,0,.994-.567l2.533-14.725A.362.362,0,0,0,21.191,45.181ZM10.376,57.895l.007-.026.011,0Z" fill="#f3d55b"/>
    <path id="Path_39" data-name="Path 39" d="M221.495,351.944l-3.719,3.8a.405.405,0,0,0,.092-.166l1.2-4.625.018-.022,1.6.67.714.3Z" transform="translate(-208.692 -293.062)" fill="#f29c1f"/>
    <path id="Path_40" data-name="Path 40" d="M174.67,47.124,163.847,59.8l-.011,0-.007.026-1.2,4.625a.4.4,0,0,1-.092.166.368.368,0,0,1-.615-.158l-1.786-6.234v0h0v0Z" transform="translate(-153.453 -1.924)" fill="#f0c419"/>
  </g>
</svg>
