<svg xmlns="http://www.w3.org/2000/svg" width="24.171" height="24.587" viewBox="0 0 24.171 24.587">
  <g id="support" transform="translate(-4.339)">
    <path id="Path_607" data-name="Path 607" d="M332.508,0h-5.418a1.667,1.667,0,0,0-1.667,1.667V5.834A1.667,1.667,0,0,0,327.091,7.5h1.25V9.585L330.425,7.5h2.084a1.667,1.667,0,0,0,1.667-1.667V1.667A1.667,1.667,0,0,0,332.508,0Z" transform="translate(-305.666)" fill="#f0e4d6"/>
    <path id="Path_608" data-name="Path 608" d="M344.777,5.016a12.541,12.541,0,0,1-7.36,6.844,1.651,1.651,0,0,0,1.091.417h1.25V14.36l2.084-2.084h2.084a1.667,1.667,0,0,0,1.667-1.667V6.442A1.661,1.661,0,0,0,344.777,5.016Z" transform="translate(-317.083 -4.775)" fill="#ebdcca"/>
    <path id="Path_609" data-name="Path 609" d="M21.425,255.9l4.167-7.918H22.259l-2.084,3.751V248.4a2.5,2.5,0,0,0-2.5-2.5h-2.5a1.25,1.25,0,0,1-1.25-1.25v-1.667H10.59v1.667a1.25,1.25,0,0,1-1.25,1.25h-2.5a2.5,2.5,0,0,0-2.5,2.5v7.5Z" transform="translate(0 -231.314)" fill="#fec9a3"/>
    <g id="Group_215" data-name="Group 215" transform="translate(6.006 18.297)">
      <path id="Path_610" data-name="Path 610" d="M40.7,387.3h-.833V386.2a4.154,4.154,0,0,1-.172-4.7l.3-.48.7.447-.3.48a3.32,3.32,0,0,0,.21,3.853.417.417,0,0,1,.091.26v1.25Z" transform="translate(-39.052 -381.014)" fill="#f5b789"/>
      <path id="Path_611" data-name="Path 611" d="M265.756,387.3h-.833v-1.25a.416.416,0,0,1,.091-.26,3.319,3.319,0,0,0,.21-3.853l-.3-.48.7-.447.3.48a4.154,4.154,0,0,1-.172,4.7V387.3Z" transform="translate(-254.073 -381.014)" fill="#f5b789"/>
    </g>
    <path id="Path_612" data-name="Path 612" d="M59.4,10V5.834A5.834,5.834,0,0,0,53.563,0h0a5.834,5.834,0,0,0-5.834,5.834V10a2.5,2.5,0,0,0,2.5,2.5H56.9A2.5,2.5,0,0,0,59.4,10Z" transform="translate(-41.306)" fill="#f9b44d"/>
    <path id="Path_613" data-name="Path 613" d="M136.175,0a5.835,5.835,0,0,0-1.667.245,5.835,5.835,0,0,1,4.167,5.59V10a2.5,2.5,0,0,1-2.5,2.5h3.334a2.5,2.5,0,0,0,2.5-2.5V5.834A5.834,5.834,0,0,0,136.175,0Z" transform="translate(-123.918)" fill="#f7aa36"/>
    <path id="Path_614" data-name="Path 614" d="M381.242,297.551h-3.751a2.5,2.5,0,0,1,2.5-2.5h3.751A2.5,2.5,0,0,1,381.242,297.551Z" transform="translate(-355.232 -280.882)" fill="#fec9a3"/>
    <g id="Group_216" data-name="Group 216" transform="translate(21.425 1.667)">
      <rect id="Rectangle_102" data-name="Rectangle 102" width="2.917" height="0.833" transform="translate(0)" fill="#ccbfb0"/>
      <rect id="Rectangle_103" data-name="Rectangle 103" width="1.667" height="0.833" transform="translate(3.751)" fill="#ccbfb0"/>
      <rect id="Rectangle_104" data-name="Rectangle 104" width="5.418" height="0.833" transform="translate(0 1.667)" fill="#ccbfb0"/>
      <rect id="Rectangle_105" data-name="Rectangle 105" width="2.917" height="0.833" transform="translate(0 3.334)" fill="#ccbfb0"/>
    </g>
    <path id="Path_615" data-name="Path 615" d="M137.845,244.67v-1.688h-3.336v1.688a3.72,3.72,0,0,0,3.338,0Z" transform="translate(-123.919 -231.313)" fill="#f7c097"/>
    <path id="Path_616" data-name="Path 616" d="M91.119,79.077v1.794a3.751,3.751,0,0,0,7.5,0V77.537a3.73,3.73,0,0,0-.449-1.779Z" transform="translate(-82.613 -72.12)" fill="#fec9a3"/>
    <rect id="Rectangle_106" data-name="Rectangle 106" width="5.834" height="4.584" transform="translate(9.34 17.086)" fill="#e8594a"/>
    <path id="Path_617" data-name="Path 617" d="M22.259,305.813l-2.084,3.751v-3.334a2.5,2.5,0,0,0-2.5-2.5H16.341l-4.084,5.418-3.876-5.418H6.839a2.5,2.5,0,0,0-2.5,2.5v7.5H21.425l4.167-7.918Z" transform="translate(0 -289.143)" fill="#4398d1"/>
    <path id="Path_618" data-name="Path 618" d="M150,306.127h-3.334l-2.084,3.751v-3.334a2.5,2.5,0,0,0-2.226-2.485,11.97,11.97,0,0,1-7.335,9.986h10.811Z" transform="translate(-124.405 -289.457)" fill="#3f8fc4"/>
    <g id="Group_217" data-name="Group 217" transform="translate(6.006 18.297)">
      <path id="Path_619" data-name="Path 619" d="M40.7,387.3h-.833V386.2a4.154,4.154,0,0,1-.172-4.7l.3-.48.7.447-.3.48a3.32,3.32,0,0,0,.21,3.853.417.417,0,0,1,.091.26v1.25Z" transform="translate(-39.052 -381.014)" fill="#3685ba"/>
      <path id="Path_620" data-name="Path 620" d="M265.756,387.3h-.833v-1.25a.416.416,0,0,1,.091-.26,3.319,3.319,0,0,0,.21-3.853l-.3-.48.7-.447.3.48a4.154,4.154,0,0,1-.172,4.7V387.3Z" transform="translate(-254.073 -381.014)" fill="#3685ba"/>
    </g>
    <path id="Path_621" data-name="Path 621" d="M172.971,80.871V77.537a3.73,3.73,0,0,0-.449-1.779l-1.058.5a5.809,5.809,0,0,1,.256,1.7v4.167a2.5,2.5,0,0,1-2.5,2.5,3.75,3.75,0,0,0,3.751-3.751Z" transform="translate(-156.963 -72.12)" fill="#f7c097"/>
  </g>
</svg>
