<svg id="ULTIMATE" xmlns="http://www.w3.org/2000/svg" width="834.093" height="731.303" viewBox="0 0 834.093 731.303">
  <circle id="Ellipse_137" data-name="Ellipse 137" cx="278.835" cy="278.835" r="278.835" transform="translate(138.221 0)" fill="#e4e4e4"/>
  <rect id="Rectangle_133" data-name="Rectangle 133" width="144.233" height="80.973" transform="translate(604.801 318.182) rotate(135)" fill="#f2a077"/>
  <path id="Path_697" data-name="Path 697" d="M387.868,237.2,285.876,339.2,308.64,361.96c1-.828,1.973-1.7,2.909-2.64L410.768,260.1Z" transform="translate(159.682 23.725)" fill="#d6774d"/>
  <path id="Path_698" data-name="Path 698" d="M398.472,183.8h0a23.434,23.434,0,0,0-33.139,0l6.336-6.336a23.432,23.432,0,0,0,0-33.14h0a23.434,23.434,0,0,0-33.14,0l8.609-8.609A23.434,23.434,0,0,0,314,102.577l6.074-6.074a23.433,23.433,0,0,0,0-33.14h0a23.434,23.434,0,0,0-33.14,0l-21.02,21.02h0L255.3,94.993l-42.2-10.283a42.528,42.528,0,0,0-44.221,15.974l-52.175,70.3A44.75,44.75,0,0,0,121,229.3L61.127,289.17,163.119,391.162l64.47-64.47,1.336,1.336a41.339,41.339,0,0,0,58.463,0L398.473,216.943A23.433,23.433,0,0,0,398.472,183.8Z" transform="translate(170.15 32.143)" fill="#d7875f"/>
  <path id="Path_699" data-name="Path 699" d="M398.472,189.727h0a23.291,23.291,0,0,0-10.491-6.043A23.97,23.97,0,0,1,381.1,205.5L270.021,316.584c-16.144,16.144-41.007,17.456-55.533,2.93h0a1.7,1.7,0,0,0-2.4,0l-63.268,63.269-87.69-87.69h0L163.118,397.086l64.47-64.47,1.336,1.336a41.339,41.339,0,0,0,58.463,0L398.472,222.866A23.431,23.431,0,0,0,398.472,189.727Z" transform="translate(170.15 26.218)" fill="#b05a3d"/>
  <path id="Path_700" data-name="Path 700" d="M91.751,157.916h0a22.425,22.425,0,0,0,0,31.715l11.606,11.606a22.426,22.426,0,0,0,31.716,0h0a22.426,22.426,0,0,0,0-31.716l-11.606-11.606A22.427,22.427,0,0,0,91.751,157.916Z" transform="translate(169.03 27.725)" fill="#fca"/>
  <path id="Path_701" data-name="Path 701" d="M183.353,49.931h0a22.425,22.425,0,0,0,0,31.715l18.635,18.635a22.426,22.426,0,0,0,31.716,0h0a22.426,22.426,0,0,0,0-31.716L215.07,49.931A22.427,22.427,0,0,0,183.353,49.931Z" transform="translate(164.763 32.754)" fill="#f2a077"/>
  <path id="Path_702" data-name="Path 702" d="M145.538,78.645h0a22.425,22.425,0,0,0,0,31.715l37.03,37.03a22.426,22.426,0,0,0,31.716,0h0a22.426,22.426,0,0,0,0-31.716l-37.03-37.03A22.427,22.427,0,0,0,145.538,78.645Z" transform="translate(166.524 31.417)" fill="#f7aa86"/>
  <path id="Path_703" data-name="Path 703" d="M119.555,119.19h0a22.425,22.425,0,0,0,0,31.715L141.9,173.249a22.426,22.426,0,0,0,31.716,0h0a22.426,22.426,0,0,0,0-31.716L151.272,119.19A22.427,22.427,0,0,0,119.555,119.19Z" transform="translate(167.735 29.528)" fill="#f2a077"/>
  <path id="Path_704" data-name="Path 704" d="M291.131,65.222l-6.362-12.087a16.713,16.713,0,0,0-17.094-8.768L210.758,52.3a8.468,8.468,0,0,0-7.2,9.713l1.274,8.042a33.108,33.108,0,0,0,38.4,27.436l18.937-3.307Z" transform="translate(163.521 32.715)" fill="#fca"/>
  <path id="Path_705" data-name="Path 705" d="M38.018,290.273,0,328.291,131.776,460.067l38.018-38.018a19.251,19.251,0,0,0,0-27.225L65.243,290.273A19.251,19.251,0,0,0,38.018,290.273Z" transform="translate(172.997 21.516)" fill="#2bb4f3"/>
  <path id="Path_706" data-name="Path 706" d="M175.373,399.437,159.62,383.684c6.516,6.516,5.7,17.892-1.814,25.41l-38.018,38.018,17.568,17.569,38.018-38.019A19.25,19.25,0,0,0,175.373,399.437Z" transform="translate(167.418 16.903)" fill="#1687c4"/>
  <path id="Path_707" data-name="Path 707" d="M333.635,416.74l38.018,38.018L503.429,322.982l-38.018-38.018a19.251,19.251,0,0,0-27.225,0L333.635,389.515A19.251,19.251,0,0,0,333.635,416.74Z" transform="translate(157.72 21.764)" fill="#75dc5e"/>
  <path id="Path_708" data-name="Path 708" d="M349.174,378.6l-15.539,15.539a19.251,19.251,0,0,0,0,27.225l38.018,38.018,17.328-17.329-38.018-38.018C343.446,396.516,342.644,385.13,349.174,378.6Z" transform="translate(157.72 17.14)" fill="#2aad52"/>
  <g id="Group_234" data-name="Group 234" transform="translate(0 70.807)">
    <path id="Path_731" data-name="Path 731" d="M39.8,135.078a569.738,569.738,0,0,1,67.371-62.795,3.792,3.792,0,0,1,6.01,3.955C99.576,126.257,75.8,175.686,39.145,212.432A502.743,502.743,0,0,1,39.8,135.078Z" transform="translate(23.89 -71.456)" fill="#fd9727"/>
    <path id="Path_732" data-name="Path 732" d="M63.038,189.806A569.6,569.6,0,0,1,7.305,109.36a3.775,3.775,0,0,0-7.047,1.658C-2.7,169.41,19.613,237.732,73.967,265.288A504.81,504.81,0,0,1,63.038,189.806Z" transform="translate(0 -48.811)" fill="#fd9727"/>
    <path id="Path_733" data-name="Path 733" d="M45.4,234.915a547.864,547.864,0,0,1,45.7-77.61,3.787,3.787,0,0,1,6.873,2c2.129,50.44-6.526,103.76-30.7,148.037A508.486,508.486,0,0,1,45.4,234.915Z" transform="translate(28.562 -18.458)" fill="#fd9727"/>
    <path id="Path_734" data-name="Path 734" d="M90.879,271.831A590.808,590.808,0,0,1,14.22,213.172,3.775,3.775,0,0,0,8.027,216.9c14.505,55.773,55.987,113.008,115.046,123.116A511.237,511.237,0,0,1,90.879,271.831Z" transform="translate(4.968 17.072)" fill="#fd9727"/>
    <path id="Path_735" data-name="Path 735" d="M78.59,325.2a538.874,538.874,0,0,1,21.282-86.923,3.787,3.787,0,0,1,7.148-.085c16.762,47.322,23.552,100.708,13.438,149.772A510.778,510.778,0,0,1,78.59,325.2Z" transform="translate(49.44 31.868)" fill="#fd9727"/>
    <path id="Path_736" data-name="Path 736" d="M141.225,342.287A602.537,602.537,0,0,1,51,308.712a3.775,3.775,0,0,0-4.827,5.378c30.133,49.14,86.548,91.687,145.969,84.354A507.5,507.5,0,0,1,141.225,342.287Z" transform="translate(28.688 77.565)" fill="#fd9727"/>
    <path id="Path_737" data-name="Path 737" d="M137.651,399.7a527.586,527.586,0,0,1-5.251-89.693,3.788,3.788,0,0,1,6.816-2.165c30.013,40.69,52.4,90.116,57.759,140.227A504.209,504.209,0,0,1,137.651,399.7Z" transform="translate(83.166 76.292)" fill="#fd9727"/>
    <path id="Path_738" data-name="Path 738" d="M501.294,135.078a569.739,569.739,0,0,0-67.371-62.795,3.792,3.792,0,0,0-6.01,3.955c13.608,50.018,37.384,99.448,74.039,136.193A502.751,502.751,0,0,0,501.294,135.078Z" transform="translate(269.107 -71.456)" fill="#fd9727"/>
    <path id="Path_739" data-name="Path 739" d="M477.526,189.806a569.6,569.6,0,0,0,55.733-80.446,3.775,3.775,0,0,1,7.047,1.658c2.955,58.391-19.355,126.714-73.71,154.27A504.815,504.815,0,0,0,477.526,189.806Z" transform="translate(293.529 -48.811)" fill="#fd9727"/>
    <path id="Path_740" data-name="Path 740" d="M487.019,234.915a547.859,547.859,0,0,0-45.7-77.61,3.787,3.787,0,0,0-6.873,2c-2.129,50.44,6.526,103.76,30.7,148.037A508.482,508.482,0,0,0,487.019,234.915Z" transform="translate(273.109 -18.458)" fill="#fd9727"/>
    <path id="Path_741" data-name="Path 741" d="M465.6,271.831a590.811,590.811,0,0,0,76.658-58.659,3.775,3.775,0,0,1,6.194,3.727C533.945,272.673,492.464,329.908,433.4,340.016A511.229,511.229,0,0,0,465.6,271.831Z" transform="translate(272.648 17.072)" fill="#fd9727"/>
    <path id="Path_742" data-name="Path 742" d="M451.41,325.2a538.877,538.877,0,0,0-21.282-86.923,3.787,3.787,0,0,0-7.148-.085c-16.762,47.322-23.552,100.708-13.438,149.772A510.775,510.775,0,0,0,451.41,325.2Z" transform="translate(254.652 31.868)" fill="#fd9727"/>
    <path id="Path_743" data-name="Path 743" d="M427.363,342.287a602.539,602.539,0,0,0,90.224-33.575,3.776,3.776,0,0,1,4.829,5.378c-30.133,49.14-86.548,91.687-145.969,84.354A507.647,507.647,0,0,0,427.363,342.287Z" transform="translate(236.817 77.565)" fill="#fd9727"/>
    <path id="Path_744" data-name="Path 744" d="M399.363,399.7a527.581,527.581,0,0,0,5.251-89.693,3.787,3.787,0,0,0-6.816-2.165c-30.013,40.69-52.4,90.116-57.759,140.227A504.211,504.211,0,0,0,399.363,399.7Z" transform="translate(213.913 76.292)" fill="#fd9727"/>
  </g>
  <path id="Path_745" data-name="Path 745" d="M763.274,158.976c0-.248,0-.494-.018-.743a549.127,549.127,0,0,0-20.981-114.1,12.588,12.588,0,0,0-24.146,7.127,523.978,523.978,0,0,1,19.925,107.753c.006.27.008.541.033.815a491.245,491.245,0,0,1,.632,75.291.205.205,0,0,0,0,.031,493.511,493.511,0,0,1-10.644,73.464s0,0,0,.007a497.639,497.639,0,0,1-21.308,70.52c0,.008,0,.015-.008.023v0a500.269,500.269,0,0,1-31.355,66.39h0a499.98,499.98,0,0,1-40.779,61.117s0,.008-.008.011a.043.043,0,0,0-.008.01,496.915,496.915,0,0,1-49.575,54.666l0,0a493.125,493.125,0,0,1-57.759,47.079c-.078.055-.147.119-.223.174s-.151.1-.223.155c-36.257,27.857-54.63,34.806-74.081,42.158-15.406,5.826-31.134,11.786-54.931,27.65-23.8-15.864-39.525-21.825-54.931-27.65-19.451-7.354-37.824-14.3-74.081-42.158-.072-.055-.15-.1-.223-.153s-.147-.12-.225-.176a492.979,492.979,0,0,1-57.759-47.079l0,0a496.766,496.766,0,0,1-49.575-54.666.043.043,0,0,1-.008-.01s0-.008-.008-.011a499.789,499.789,0,0,1-40.779-61.117h0a500.076,500.076,0,0,1-31.355-66.39s0,0,0,0l-.008-.023A497.446,497.446,0,0,1,67.54,308.62s0,0,0-.007A493.333,493.333,0,0,1,56.894,235.15a.222.222,0,0,1,0-.031,491.246,491.246,0,0,1,.632-75.291c.024-.274.026-.544.033-.815A524,524,0,0,1,77.481,51.261a12.588,12.588,0,0,0-24.146-7.127,549.129,549.129,0,0,0-20.981,114.1c-.02.249-.015.5-.018.743a518.14,518.14,0,0,0-.567,77.751v.018a519.016,519.016,0,0,0,11.162,77.173c0,.018,0,.036.008.054a523,523,0,0,0,22.374,74.105.093.093,0,0,1,.007.02A525.554,525.554,0,0,0,98.23,457.825s0,.01.008.015a524.871,524.871,0,0,0,42.835,64.223l0,0s0,0,0,0a521.96,521.96,0,0,0,52.1,57.472l.016.015a518.1,518.1,0,0,0,60.473,49.33c39.069,29.993,60.033,37.92,80.3,45.585,12.617,4.77,24.9,9.423,41.9,19.88-13.016,9.977-28.092,22.495-45.979,38.5a12.587,12.587,0,1,0,16.786,18.76C367.42,733.053,384,719.489,397.8,709.288c13.8,10.2,30.382,23.765,51.126,42.325a12.587,12.587,0,0,0,16.786-18.76c-17.886-16.006-32.963-28.524-45.979-38.5,17-10.457,29.284-15.11,41.9-19.88,20.272-7.663,41.235-15.592,80.3-45.585a518.1,518.1,0,0,0,60.473-49.33l.016-.015a521.947,521.947,0,0,0,52.1-57.472s0,0,0,0l0,0a524.867,524.867,0,0,0,42.835-64.223s0-.01.008-.015A525.738,525.738,0,0,0,730.289,388.1c0-.006,0-.013.007-.02a522.982,522.982,0,0,0,22.374-74.105c0-.018,0-.036.008-.054a518.817,518.817,0,0,0,11.162-77.173v-.018A517.962,517.962,0,0,0,763.274,158.976Z" transform="translate(19.242 -23.518)" fill="#ff6d3a"/>
</svg>
