<svg xmlns="http://www.w3.org/2000/svg" width="30.743" height="27.563" viewBox="0 0 30.743 27.563">
  <g id="XMLID_21_" transform="translate(0 -3)">
    <path id="XMLID_148_" d="M16.781,45.18C9.17,45.18,3,43.61,3,42v3.708c0,1.609,6.172,3.182,13.781,3.182s13.777-1.573,13.781-3.182V42c0,1.61-6.17,3.18-13.781,3.18" transform="translate(-1.41 -18.328)" fill="#e4af18"/>
    <path id="XMLID_147_" d="M13.781,34.18C6.17,34.18,0,32.61,0,31v3.708c0,1.609,6.172,3.182,13.781,3.182s13.777-1.573,13.781-3.182V31c0,1.61-6.17,3.18-13.781,3.18" transform="translate(0 -13.159)" fill="#f4bf1a"/>
    <path id="XMLID_146_" d="M19.781,23.18C12.17,23.18,6,21.61,6,20v3.708c0,1.609,6.172,3.182,13.781,3.182s13.777-1.573,13.781-3.182V20c0,1.61-6.17,3.18-13.781,3.18" transform="translate(-2.82 -7.989)" fill="#e4af18"/>
    <path id="XMLID_145_" d="M27.563,5.719c0,1.61-6.17,3.111-13.781,3.111S0,7.329,0,5.719,6.17,3,13.781,3,27.563,4.109,27.563,5.719" fill="#ffd949"/>
    <path id="XMLID_144_" d="M13.781,11.18C6.17,11.18,0,9.61,0,8v3.708c0,1.609,6.172,3.182,13.781,3.182s13.777-1.573,13.781-3.182V8c0,1.61-6.17,3.18-13.781,3.18" transform="translate(0 -2.35)" fill="#f4bf1a"/>
    <path id="XMLID_143_" d="M4,11.074v3.708q.483.178,1.06.342V11.416q-.577-.164-1.06-.342" transform="translate(-1.88 -3.794)" fill="#dca815"/>
    <path id="XMLID_142_" d="M46,11.416v3.708q.577-.164,1.06-.342V11.074q-.483.178-1.06.342" transform="translate(-21.618 -3.794)" fill="#dca815"/>
    <path id="XMLID_141_" d="M9,12.445v3.709q.509.106,1.06.2V12.645q-.551-.095-1.06-.2" transform="translate(-4.23 -4.439)" fill="#dca815"/>
    <path id="XMLID_140_" d="M41,12.645v3.709q.551-.1,1.06-.2V12.445q-.509.106-1.06.2" transform="translate(-19.268 -4.439)" fill="#dca815"/>
    <path id="XMLID_139_" d="M14,13.269v3.709c.346.045.7.086,1.06.123V13.392c-.362-.037-.715-.079-1.06-.123" transform="translate(-6.579 -4.826)" fill="#dca815"/>
    <path id="XMLID_138_" d="M36,13.393V17.1c.362-.038.715-.079,1.06-.123v-3.71c-.346.045-.7.086-1.06.124" transform="translate(-16.918 -4.826)" fill="#dca815"/>
    <path id="XMLID_137_" d="M19,13.759v3.71q.522.037,1.06.064v-3.71q-.538-.026-1.06-.063" transform="translate(-8.929 -5.056)" fill="#dca815"/>
    <path id="XMLID_136_" d="M31,13.822v3.71q.538-.026,1.06-.064v-3.71q-.522.037-1.06.063" transform="translate(-14.569 -5.056)" fill="#dca815"/>
    <path id="XMLID_135_" d="M25.53,14c-.178,0-.354,0-.53,0V17.7c.176,0,.352,0,.53,0s.354,0,.53,0v-3.71c-.176,0-.352,0-.53,0" transform="translate(-11.749 -5.167)" fill="#dca815"/>
    <path id="XMLID_134_" d="M10,23.074v3.708q.483.178,1.06.342V23.416q-.577-.164-1.06-.342" transform="translate(-4.7 -9.434)" fill="#c49214"/>
    <path id="XMLID_133_" d="M52,23.416v3.708q.577-.164,1.06-.342V23.074q-.483.178-1.06.342" transform="translate(-24.438 -9.434)" fill="#c49214"/>
    <path id="XMLID_132_" d="M15,24.445v3.709q.509.106,1.06.2V24.645q-.551-.095-1.06-.2" transform="translate(-7.049 -10.078)" fill="#c49214"/>
    <path id="XMLID_131_" d="M47,24.645v3.709q.551-.1,1.06-.2V24.445q-.509.106-1.06.2" transform="translate(-22.088 -10.078)" fill="#c49214"/>
    <path id="XMLID_130_" d="M20,25.27v3.709c.346.045.7.086,1.06.123V25.393c-.362-.038-.715-.079-1.06-.123" transform="translate(-9.399 -10.466)" fill="#c49214"/>
    <path id="XMLID_129_" d="M42,25.392V29.1c.362-.038.715-.079,1.06-.123V25.27c-.346.045-.7.086-1.06.122" transform="translate(-19.738 -10.466)" fill="#c49214"/>
    <path id="XMLID_128_" d="M25,25.759v3.71q.522.037,1.06.064v-3.71q-.538-.026-1.06-.063" transform="translate(-11.749 -10.696)" fill="#c49214"/>
    <path id="XMLID_127_" d="M37,25.822v3.71q.538-.026,1.06-.064v-3.71q-.522.037-1.06.063" transform="translate(-17.388 -10.696)" fill="#c49214"/>
    <path id="XMLID_126_" d="M31.53,26c-.178,0-.354,0-.53,0V29.7c.176,0,.352,0,.53,0s.354,0,.53,0v-3.71c-.176,0-.352,0-.53,0" transform="translate(-14.569 -10.806)" fill="#c49214"/>
    <path id="XMLID_125_" d="M4,34.074v3.708q.483.178,1.06.342V34.416q-.577-.164-1.06-.342" transform="translate(-1.88 -14.603)" fill="#dca815"/>
    <path id="XMLID_124_" d="M46,34.416v3.708q.577-.164,1.06-.342V34.074q-.483.178-1.06.342" transform="translate(-21.618 -14.603)" fill="#dca815"/>
    <path id="XMLID_123_" d="M9,35.445v3.709q.509.106,1.06.2V35.645q-.551-.095-1.06-.2" transform="translate(-4.23 -15.248)" fill="#dca815"/>
    <path id="XMLID_122_" d="M41,35.645v3.709q.551-.1,1.06-.2V35.445q-.509.106-1.06.2" transform="translate(-19.268 -15.248)" fill="#dca815"/>
    <path id="XMLID_121_" d="M14,36.27v3.709c.346.045.7.086,1.06.123V36.393c-.362-.038-.715-.079-1.06-.123" transform="translate(-6.579 -15.635)" fill="#dca815"/>
    <path id="XMLID_120_" d="M36,36.392V40.1c.362-.038.715-.079,1.06-.123V36.27c-.346.045-.7.086-1.06.122" transform="translate(-16.918 -15.635)" fill="#dca815"/>
    <path id="XMLID_119_" d="M19,36.759v3.71q.522.037,1.06.064v-3.71q-.538-.026-1.06-.063" transform="translate(-8.929 -15.865)" fill="#dca815"/>
    <path id="XMLID_118_" d="M31,36.822v3.71q.538-.026,1.06-.064v-3.71q-.522.037-1.06.063" transform="translate(-14.569 -15.865)" fill="#dca815"/>
    <path id="XMLID_117_" d="M25.53,37c-.178,0-.354,0-.53,0V40.7c.176,0,.352,0,.53,0s.354,0,.53,0v-3.71c-.176,0-.352,0-.53,0" transform="translate(-11.749 -15.976)" fill="#dca815"/>
    <path id="XMLID_116_" d="M7,45.074v3.708q.483.178,1.06.342V45.416q-.577-.164-1.06-.342" transform="translate(-3.29 -19.773)" fill="#c49214"/>
    <path id="XMLID_115_" d="M49,45.416v3.708q.577-.164,1.06-.342V45.074q-.483.178-1.06.342" transform="translate(-23.028 -19.773)" fill="#c49214"/>
    <path id="XMLID_114_" d="M12,46.445v3.709q.509.106,1.06.2V46.645q-.551-.095-1.06-.2" transform="translate(-5.639 -20.417)" fill="#c49214"/>
    <path id="XMLID_113_" d="M44,46.645v3.709q.551-.1,1.06-.2V46.445q-.509.106-1.06.2" transform="translate(-20.678 -20.417)" fill="#c49214"/>
    <path id="XMLID_112_" d="M17,47.27v3.709c.346.045.7.086,1.06.123V47.393c-.362-.038-.715-.079-1.06-.123" transform="translate(-7.989 -20.805)" fill="#c49214"/>
    <path id="XMLID_111_" d="M39,47.392V51.1c.362-.038.715-.079,1.06-.123V47.27c-.346.045-.7.086-1.06.122" transform="translate(-18.328 -20.805)" fill="#c49214"/>
    <path id="XMLID_110_" d="M22,47.759v3.71q.522.037,1.06.064v-3.71q-.538-.026-1.06-.063" transform="translate(-10.339 -21.035)" fill="#c49214"/>
    <path id="XMLID_109_" d="M34,47.822v3.71q.538-.026,1.06-.064v-3.71q-.522.037-1.06.063" transform="translate(-15.978 -21.035)" fill="#c49214"/>
    <path id="XMLID_108_" d="M28.53,48c-.178,0-.354,0-.53,0V51.7c.176,0,.352,0,.53,0s.354,0,.53,0v-3.71c-.176,0-.352,0-.53,0" transform="translate(-13.159 -21.145)" fill="#c49214"/>
    <path id="XMLID_107_" d="M28.555,39.372c-1.505,1.324-6.917,2.453-13.364,2.453-5.041,0-9.447-.691-11.85-1.625A.876.876,0,0,0,3,40.834c0,1.61,6.17,3.111,13.781,3.111s13.781-1.5,13.781-3.111c0-.555-.734-1.051-2.008-1.462" transform="translate(-1.41 -17.093)" fill="#fcc62d"/>
    <path id="XMLID_106_" d="M16.962,30.517c-7,0-12.783-1.333-13.661-2.8C1.244,28.183,0,28.8,0,29.526c0,1.61,6.17,3.111,13.781,3.111s13.781-1.5,13.781-3.111a.64.64,0,0,0-.04-.209,41.455,41.455,0,0,1-10.561,1.2" transform="translate(0 -11.616)" fill="#ffd949"/>
    <path id="XMLID_105_" d="M29.848,16.549C28.2,17.832,22.895,18.908,16.6,18.908A42.466,42.466,0,0,1,6.361,17.8.9.9,0,0,0,6,18.447c0,1.61,6.17,3.111,13.781,3.111s13.781-1.5,13.781-3.111c0-.77-1.412-1.424-3.714-1.9" transform="translate(-2.82 -6.367)" fill="#fcc62d"/>
  </g>
</svg>
